<svg width="33" height="32" viewBox="0 0 33 32" fill="none" xmlns="http://www.w3.org/2000/svg">
<rect x="0.431641" width="32" height="32" rx="7.38501" fill="#003896"/>
<path d="M13.7899 8.53817L7.50376 14.8899C6.99981 15.3991 7.38513 16.2619 8.10067 16.2265L17.1267 15.7797C17.3329 15.7695 17.5269 15.6785 17.6665 15.5263L23.6438 9.01065C24.1236 8.48764 23.7184 7.64698 23.0104 7.69657L14.2931 8.30722C14.1029 8.32054 13.924 8.40263 13.7899 8.53817Z" fill="white" stroke="#003896" stroke-width="0.623074"/>
<path d="M13.3484 20.5263L12.4318 18.337C12.2265 17.8467 12.5575 17.2984 13.087 17.2516L17.7235 16.842C17.9068 16.8258 18.0785 16.7457 18.2088 16.6159L21.4673 13.3674C21.8445 12.9914 22.4785 13.0919 22.7209 13.5661L23.807 15.6912C23.8593 15.7937 23.8896 15.9065 23.8898 16.0216C23.8904 16.5061 23.8109 16.8399 23.5793 17.4076C23.264 18.0886 22.9515 18.4338 22.2482 19.0099C21.1777 19.9614 20.4535 20.2848 19.1412 20.8268C17.9006 21.2208 17.1922 21.4193 15.7772 21.5088C15.143 21.5504 14.7697 21.5258 14.137 21.2593C14.0694 21.2308 14.0066 21.1914 13.9502 21.1443L13.5689 20.8254C13.4725 20.7448 13.3969 20.6422 13.3484 20.5263Z" fill="white" stroke="#003896" stroke-width="0.623074"/>
<path d="M10.8325 16.4176L10.877 16.2186C10.9564 15.8632 10.689 15.5248 10.3249 15.5199C10.0397 15.5161 9.79505 15.7224 9.75061 16.0041L9.67044 16.5124C9.65793 16.9686 9.68463 17.238 9.76801 17.733L10.2793 19.3767C10.3036 19.4549 10.3155 19.5365 10.3146 19.6184L10.3072 20.3074C10.3056 20.4539 10.345 20.5978 10.4209 20.7231L10.6249 21.0595C10.6772 21.1457 10.7457 21.2211 10.8265 21.2814L11.121 21.5013C11.2468 21.5953 11.3415 21.7248 11.393 21.8731L12.6266 25.4288C12.7789 25.868 13.2773 26.0794 13.6989 25.8837L14.1295 25.6839C14.5512 25.4882 14.7115 24.9712 14.4745 24.5713L12.586 21.3849C12.4873 21.2184 12.4536 21.0213 12.4914 20.8315L12.5445 20.5641C12.577 20.4008 12.5567 20.2315 12.4866 20.0805L12.2498 19.5702C12.2225 19.5114 11.9121 19.293 11.6524 19.119C11.5118 19.0248 11.4029 18.8899 11.344 18.7312L10.9187 17.5858C10.7759 17.1727 10.7996 16.9153 10.815 16.552C10.8169 16.5068 10.8227 16.4618 10.8325 16.4176Z" fill="white" stroke="#003896" stroke-width="0.623074"/>
<path d="M12.333 19.9007C12.5902 20.455 12.3626 21.079 11.8652 21.3098C11.3678 21.5406 10.7443 21.3116 10.487 20.7573C10.2298 20.203 10.4575 19.579 10.9549 19.3482C11.4523 19.1173 12.0757 19.3464 12.333 19.9007Z" fill="white" stroke="#003896" stroke-width="0.623074"/>
</svg>
