<svg width="1920" height="623" viewBox="0 0 1920 623" fill="none" xmlns="http://www.w3.org/2000/svg">
<rect y="68" width="1920" height="555" fill="url(#paint0_linear_1209_4)"/>
<g clip-path="url(#clip0_1209_4)">
<path d="M835.499 104.078H740.574V199.019H835.499V104.078Z" stroke="white" stroke-opacity="0.5" stroke-width="2.05614" stroke-miterlimit="10"/>
<path d="M740.574 104.078L967.866 331.986" stroke="white" stroke-opacity="0.5" stroke-width="2.05614" stroke-miterlimit="10"/>
<path d="M836.166 104.078L1186.84 454.797" stroke="white" stroke-opacity="0.5" stroke-width="2.05614" stroke-miterlimit="10"/>
<path d="M874.763 293.095C871.607 293.095 869.046 290.533 869.046 287.394C869.046 284.255 871.607 281.676 874.763 281.676C877.92 281.676 880.463 284.237 880.463 287.394C880.463 290.551 877.902 293.095 874.763 293.095Z" stroke="white" stroke-opacity="0.5" stroke-width="2.05614" stroke-miterlimit="10"/>
<path d="M740.574 287.394H869.19" stroke="white" stroke-opacity="0.5" stroke-width="2.05614" stroke-miterlimit="10"/>
<path d="M830.273 250.559C827.117 250.559 824.556 247.997 824.556 244.858C824.556 241.701 827.117 239.14 830.273 239.14C833.429 239.14 835.991 241.701 835.991 244.858C835.973 248.015 833.429 250.559 830.273 250.559Z" stroke="white" stroke-opacity="0.5" stroke-width="2.05614" stroke-miterlimit="10"/>
<path d="M740.574 244.857H824.551" stroke="white" stroke-opacity="0.5" stroke-width="2.05614" stroke-miterlimit="10"/>
<path d="M799.048 260.406C802.204 260.406 804.765 262.968 804.765 266.125C804.765 269.282 802.204 271.843 799.048 271.843C795.891 271.843 793.33 269.282 793.33 266.125C793.33 262.968 795.909 260.406 799.048 260.406Z" stroke="white" stroke-opacity="0.5" stroke-width="2.05614" stroke-miterlimit="10"/>
<path d="M901.835 266.125H804.765" stroke="white" stroke-opacity="0.5" stroke-width="2.05614" stroke-miterlimit="10"/>
<path d="M841.178 303.431C844.335 303.431 846.896 305.992 846.896 309.149C846.896 312.306 844.335 314.85 841.178 314.85C838.022 314.85 835.461 312.288 835.461 309.149C835.479 305.992 838.022 303.431 841.178 303.431Z" stroke="white" stroke-opacity="0.5" stroke-width="2.05614" stroke-miterlimit="10"/>
<path d="M943.949 309.149H846.896" stroke="white" stroke-opacity="0.5" stroke-width="2.05614" stroke-miterlimit="10"/>
<path d="M1733.41 594.854C1731.18 592.617 1731.18 589.009 1733.41 586.772C1735.65 584.536 1739.26 584.536 1741.49 586.772C1743.73 589.009 1743.73 592.617 1741.49 594.854C1739.26 597.073 1735.63 597.073 1733.41 594.854Z" stroke="white" stroke-opacity="0.5" stroke-width="2.05614" stroke-miterlimit="10"/>
<path d="M1619.05 471.953L1733.14 586.069" stroke="white" stroke-opacity="0.5" stroke-width="2.05614" stroke-miterlimit="10"/>
<path d="M1733.41 534.26C1731.18 532.023 1731.18 528.415 1733.41 526.179C1735.65 523.942 1739.26 523.942 1741.49 526.179C1743.73 528.415 1743.73 532.023 1741.49 534.26C1739.26 536.497 1735.63 536.497 1733.41 534.26Z" stroke="white" stroke-opacity="0.5" stroke-width="2.05614" stroke-miterlimit="10"/>
<path d="M1649.35 442.098L1733.41 526.178" stroke="white" stroke-opacity="0.5" stroke-width="2.05614" stroke-miterlimit="10"/>
<path d="M1741.48 555.547C1743.71 557.766 1743.71 561.391 1741.48 563.628C1739.24 565.847 1735.63 565.847 1733.4 563.628C1731.16 561.391 1731.16 557.784 1733.4 555.547C1735.63 553.31 1739.26 553.31 1741.48 555.547Z" stroke="white" stroke-opacity="0.5" stroke-width="2.05614" stroke-miterlimit="10"/>
<path d="M1848.86 669.753L1743.15 564.025" stroke="white" stroke-opacity="0.5" stroke-width="2.05614" stroke-miterlimit="10"/>
<path d="M884.489 552.029H814.833C820.514 551.47 825.817 549.612 830.434 546.744C830.597 546.654 830.759 546.545 830.921 546.437C841.076 539.925 847.821 528.524 847.821 515.536V515.355H848.128C868.238 515.518 884.489 531.88 884.489 552.029Z" stroke="white" stroke-opacity="0.5" stroke-width="2.05614" stroke-miterlimit="10"/>
<path d="M847.818 442.206V442.025C868.073 442.025 884.486 458.441 884.486 478.699C884.486 498.957 868.073 515.373 847.818 515.373" stroke="white" stroke-opacity="0.5" stroke-width="2.05614" stroke-miterlimit="10"/>
<path d="M884.796 552.029H884.49C864.398 551.867 848.129 535.505 848.129 515.355C848.129 495.205 864.38 478.844 884.49 478.682H884.796C905.051 478.682 921.464 495.097 921.464 515.355C921.464 535.595 905.033 552.029 884.796 552.029Z" stroke="white" stroke-opacity="0.5" stroke-width="2.05614" stroke-miterlimit="10"/>
<path d="M847.818 368.859V368.679C868.073 368.679 884.486 385.094 884.486 405.352C884.486 425.61 868.073 442.026 847.818 442.026" stroke="white" stroke-opacity="0.5" stroke-width="2.05614" stroke-miterlimit="10"/>
<path d="M910.701 467.932C925.02 453.61 925.02 430.39 910.701 416.068C896.381 401.746 873.165 401.746 858.846 416.068C844.526 430.39 844.526 453.61 858.846 467.932C873.165 482.254 896.381 482.254 910.701 467.932Z" stroke="white" stroke-opacity="0.5" stroke-width="2.05614" stroke-miterlimit="10"/>
<path d="M884.484 331.987C884.484 352.137 868.251 368.481 848.123 368.661H847.798" stroke="white" stroke-opacity="0.5" stroke-width="2.05614" stroke-miterlimit="10"/>
<path d="M884.796 405.335C864.542 405.335 848.129 388.919 848.129 368.661C848.129 348.403 864.542 331.987 884.796 331.987C905.051 331.987 921.464 348.403 921.464 368.661C921.464 388.919 905.051 405.335 884.796 405.335Z" stroke="white" stroke-opacity="0.5" stroke-width="2.05614" stroke-miterlimit="10"/>
<path d="M774.792 368.679H774.486C774.486 349.305 759.444 333.43 740.397 332.096C740.776 332.077 741.155 332.041 741.534 331.987H811.153C811.153 352.155 794.903 368.499 774.792 368.679Z" stroke="white" stroke-opacity="0.5" stroke-width="2.05614" stroke-miterlimit="10"/>
<path d="M811.462 405.335C791.207 405.335 774.794 388.919 774.794 368.661C774.794 348.403 791.207 331.987 811.462 331.987C831.716 331.987 848.129 348.403 848.129 368.661C848.129 388.919 831.716 405.335 811.462 405.335Z" stroke="white" stroke-opacity="0.5" stroke-width="2.05614" stroke-miterlimit="10"/>
<path d="M740.397 405.443C759.444 404.126 774.468 388.233 774.468 368.859V368.679C794.723 368.679 811.135 385.094 811.135 405.352C811.135 425.61 794.723 442.026 774.468 442.026C774.486 422.634 759.444 406.76 740.397 405.443Z" stroke="white" stroke-opacity="0.5" stroke-width="2.05614" stroke-miterlimit="10"/>
<path d="M837.366 467.934C851.685 453.612 851.685 430.392 837.366 416.07C823.046 401.748 799.83 401.748 785.511 416.07C771.191 430.392 771.191 453.612 785.511 467.934C799.83 482.256 823.047 482.256 837.366 467.934Z" stroke="white" stroke-opacity="0.5" stroke-width="2.05614" stroke-miterlimit="10"/>
<path d="M740.397 478.772C759.444 477.455 774.468 461.581 774.468 442.188V442.008C794.723 442.008 811.135 458.424 811.135 478.682C811.135 498.94 794.723 515.355 774.468 515.355C774.486 495.981 759.444 480.107 740.397 478.772Z" stroke="white" stroke-opacity="0.5" stroke-width="2.05614" stroke-miterlimit="10"/>
<path d="M811.462 552.029H811.137C791.027 551.849 774.794 535.505 774.794 515.355C774.794 495.205 791.045 478.862 811.137 478.682H811.462C812.291 478.682 813.103 478.718 813.896 478.772C833.015 480.016 848.129 495.927 848.129 515.355C848.129 528.452 841.257 539.961 830.923 546.437C830.76 546.545 830.598 546.653 830.436 546.744C824.898 550.099 818.405 552.029 811.462 552.029Z" stroke="white" stroke-opacity="0.5" stroke-width="2.05614" stroke-miterlimit="10"/>
<path d="M811.131 552.029H741.476C759.999 550.189 774.464 534.567 774.464 515.536V515.355H774.788C794.899 515.536 811.131 531.88 811.131 552.029Z" stroke="white" stroke-opacity="0.5" stroke-width="2.05614" stroke-miterlimit="10"/>
<path d="M884.795 331.987H884.489H814.869H811.46H811.153H741.534H740.397V332.096V405.443V478.772V552.03" stroke="white" stroke-opacity="0.5" stroke-width="2.05614" stroke-miterlimit="10"/>
<path d="M740.397 552.03H741.498H811.135H811.46H814.815H884.489H884.795" stroke="white" stroke-opacity="0.5" stroke-width="2.05614" stroke-miterlimit="10"/>
<path d="M1024.32 104.078C1024.2 128.9 1004.05 148.978 979.215 148.978C979.341 124.156 999.488 104.078 1024.32 104.078Z" stroke="white" stroke-opacity="0.5" stroke-width="2.05614" stroke-miterlimit="10"/>
<path d="M979.215 148.979C1004.05 148.979 1024.22 169.056 1024.34 193.878H1024.32C999.488 193.878 979.341 173.8 979.215 148.979Z" stroke="white" stroke-opacity="0.5" stroke-width="2.05614" stroke-miterlimit="10"/>
<path d="M1024.21 193.986L979.322 149.086L1024.32 104.061" stroke="white" stroke-opacity="0.5" stroke-width="2.05614" stroke-miterlimit="10"/>
<path d="M974.957 104.078C974.831 128.9 954.684 148.978 929.849 148.978C929.957 124.156 950.121 104.078 974.957 104.078Z" stroke="white" stroke-opacity="0.5" stroke-width="2.05614" stroke-miterlimit="10"/>
<path d="M929.827 148.979C954.663 148.979 974.827 169.056 974.954 193.878H974.936C950.118 193.878 929.971 173.8 929.827 148.979Z" stroke="white" stroke-opacity="0.5" stroke-width="2.05614" stroke-miterlimit="10"/>
<path d="M974.953 104.078L929.953 149.086L974.845 193.986" stroke="white" stroke-opacity="0.5" stroke-width="2.05614" stroke-miterlimit="10"/>
<path d="M880.698 148.978H880.481C880.608 124.156 900.754 104.078 925.608 104.078C925.464 128.828 905.425 148.851 880.698 148.978Z" stroke="white" stroke-opacity="0.5" stroke-width="2.05614" stroke-miterlimit="10"/>
<path d="M925.592 193.878H925.357L880.573 149.087L880.681 148.979C905.427 149.087 925.465 169.128 925.592 193.878Z" stroke="white" stroke-opacity="0.5" stroke-width="2.05614" stroke-miterlimit="10"/>
<path d="M925.465 193.986L925.357 193.878L880.573 149.086L880.7 148.978L925.592 104.061" stroke="white" stroke-opacity="0.5" stroke-width="2.05614" stroke-miterlimit="10"/>
<path d="M1909.68 290.443C1888.92 290.334 1872.11 273.486 1872.11 252.687C1892.87 252.795 1909.68 269.661 1909.68 290.443Z" stroke="white" stroke-opacity="0.5" stroke-width="2.05614" stroke-miterlimit="10"/>
<path d="M1872.11 252.687C1872.11 273.486 1855.32 290.352 1834.54 290.443C1834.54 269.661 1851.35 252.795 1872.11 252.687Z" stroke="white" stroke-opacity="0.5" stroke-width="2.05614" stroke-miterlimit="10"/>
<path d="M1909.68 249.133C1888.92 249.025 1872.11 232.176 1872.11 211.377C1892.87 211.467 1909.68 228.334 1909.68 249.133Z" stroke="white" stroke-opacity="0.5" stroke-width="2.05614" stroke-miterlimit="10"/>
<path d="M1872.11 211.358C1872.11 232.158 1855.32 249.024 1834.54 249.114C1834.54 228.333 1851.35 211.467 1872.11 211.358Z" stroke="white" stroke-opacity="0.5" stroke-width="2.05614" stroke-miterlimit="10"/>
<path d="M1909.68 206.254C1888.92 206.164 1872.11 189.297 1872.11 168.498C1892.87 168.588 1909.68 185.455 1909.68 206.254Z" stroke="white" stroke-opacity="0.5" stroke-width="2.05614" stroke-miterlimit="10"/>
<path d="M1872.11 168.498C1872.11 189.297 1855.32 206.164 1834.54 206.272C1834.54 185.455 1851.35 168.606 1872.11 168.498Z" stroke="white" stroke-opacity="0.5" stroke-width="2.05614" stroke-miterlimit="10"/>
<path d="M1909.68 164.925C1888.92 164.817 1872.11 147.95 1872.11 127.169C1892.87 127.277 1909.68 144.144 1909.68 164.925Z" stroke="white" stroke-opacity="0.5" stroke-width="2.05614" stroke-miterlimit="10"/>
<path d="M1872.11 127.169C1872.11 147.95 1855.32 164.835 1834.54 164.925C1834.54 144.144 1851.35 127.277 1872.11 127.169Z" stroke="white" stroke-opacity="0.5" stroke-width="2.05614" stroke-miterlimit="10"/>
<path d="M993.982 454.799C993.982 508.484 1037.5 552.03 1091.2 552.03C1144.87 552.03 1188.39 508.502 1188.39 454.799" stroke="white" stroke-opacity="0.5" stroke-width="2.05614" stroke-miterlimit="10"/>
<path d="M1092.39 482.362C1077.15 483.03 1064.25 471.196 1063.58 455.953C1062.92 440.71 1074.75 427.794 1089.99 427.144C1105.23 426.477 1118.13 438.31 1118.79 453.554C1119.46 468.797 1107.63 481.695 1092.39 482.362Z" stroke="white" stroke-opacity="0.5" stroke-width="2.05614" stroke-miterlimit="10"/>
<path d="M868.723 552.03H1088.96" stroke="white" stroke-opacity="0.5" stroke-width="2.05614" stroke-miterlimit="10"/>
<path d="M1091.18 482.073V614.066L1029.96 552.841" stroke="white" stroke-opacity="0.5" stroke-width="2.05614" stroke-miterlimit="10"/>
<path d="M802.911 105.45L835.484 138.029" stroke="white" stroke-opacity="0.5" stroke-width="2.05614" stroke-miterlimit="10"/>
<path d="M771.186 104.078L834.619 167.522" stroke="white" stroke-opacity="0.5" stroke-width="2.05614" stroke-miterlimit="10"/>
<path d="M907.678 553.274V614.066H846.896V553.274" stroke="white" stroke-opacity="0.5" stroke-width="2.05614" stroke-miterlimit="10"/>
<path d="M1091.18 357.585H968.442V454.744H1091.18V357.585Z" stroke="white" stroke-opacity="0.5" stroke-width="2.05614" stroke-miterlimit="10"/>
<path d="M1188.32 357.585H1091.18V454.744H1188.32V357.585Z" stroke="white" stroke-opacity="0.5" stroke-width="2.05614" stroke-miterlimit="10"/>
<path d="M968.446 554.699C968.446 587.495 941.229 614.084 907.664 614.084C874.098 614.084 846.882 587.495 846.882 554.699" stroke="white" stroke-opacity="0.5" stroke-width="2.05614" stroke-miterlimit="10"/>
<path d="M1092.12 260.534C1118.96 260.534 1140.72 282.289 1140.72 309.15C1140.72 335.992 1118.97 357.765 1092.12 357.765" stroke="white" stroke-opacity="0.5" stroke-width="2.05614" stroke-miterlimit="10"/>
<path d="M968.442 331.987V553.274V617.62" stroke="white" stroke-opacity="0.5" stroke-width="2.05614" stroke-miterlimit="10"/>
<path d="M1188.4 398.966H1131.47" stroke="white" stroke-opacity="0.5" stroke-width="2.05614" stroke-miterlimit="10"/>
<path d="M994.003 260.534H1091.22V357.747" stroke="white" stroke-opacity="0.5" stroke-width="2.05614" stroke-miterlimit="10"/>
<path d="M882.989 331.987H1091.22" stroke="white" stroke-opacity="0.5" stroke-width="2.05614" stroke-miterlimit="10"/>
<path d="M846.901 553.274V614.066H787.454V553.274" stroke="white" stroke-opacity="0.5" stroke-width="2.05614" stroke-miterlimit="10"/>
<path d="M1024.34 292.263V104.277L975.334 55.2822" stroke="white" stroke-opacity="0.5" stroke-width="2.05614" stroke-miterlimit="10"/>
<path d="M925.594 193.879H1150.07" stroke="white" stroke-opacity="0.5" stroke-width="2.05614" stroke-miterlimit="10"/>
<path d="M1057.76 260.894C1039.29 260.894 1024.32 245.922 1024.32 227.45C1024.32 208.977 1039.29 194.005 1057.76 194.005C1076.23 194.005 1091.2 208.977 1091.2 227.45C1091.22 245.904 1076.25 260.894 1057.76 260.894Z" stroke="white" stroke-opacity="0.5" stroke-width="2.05614" stroke-miterlimit="10"/>
<path d="M767.732 598.786C780.554 596.705 789.261 584.622 787.18 571.798C785.099 558.974 773.018 550.266 760.196 552.347C747.375 554.428 738.667 566.511 740.748 579.335C742.829 592.159 754.91 600.867 767.732 598.786Z" stroke="white" stroke-opacity="0.5" stroke-width="2.05614" stroke-miterlimit="10"/>
<path d="M1169.14 173.293L1148.57 193.867L1169.14 214.442L1189.71 193.867L1169.14 173.293Z" stroke="white" stroke-opacity="0.5" stroke-width="2.05614" stroke-miterlimit="10"/>
<path d="M994.039 357.584V332.005" stroke="white" stroke-opacity="0.5" stroke-width="2.05614" stroke-miterlimit="10"/>
<path d="M1024.32 357.584V332.005" stroke="white" stroke-opacity="0.5" stroke-width="2.05614" stroke-miterlimit="10"/>
<path d="M1256.48 260.534H1080.75" stroke="white" stroke-opacity="0.5" stroke-width="2.05614" stroke-miterlimit="10"/>
<path d="M1269.27 271.952C1262.96 271.952 1257.85 266.847 1257.85 260.533C1257.85 254.219 1262.98 249.114 1269.27 249.114C1275.58 249.114 1280.69 254.219 1280.69 260.533C1280.71 266.847 1275.58 271.952 1269.27 271.952Z" stroke="white" stroke-opacity="0.5" stroke-width="2.05614" stroke-miterlimit="10"/>
<path d="M1246.44 271.952C1240.12 271.952 1235.02 266.847 1235.02 260.533C1235.02 254.219 1240.14 249.114 1246.44 249.114C1252.75 249.114 1257.85 254.219 1257.85 260.533C1257.85 266.847 1252.75 271.952 1246.44 271.952Z" stroke="white" stroke-opacity="0.5" stroke-width="2.05614" stroke-miterlimit="10"/>
<path d="M1169.44 214.642L1444.75 -60.6904" stroke="white" stroke-opacity="0.5" stroke-width="2.05614" stroke-miterlimit="10"/>
<path d="M1189.73 193.878L976.235 -19.6523" stroke="white" stroke-opacity="0.5" stroke-width="2.05614" stroke-miterlimit="10"/>
<path d="M787.454 614.949L743.139 659.253" stroke="white" stroke-opacity="0.5" stroke-width="2.05614" stroke-miterlimit="10"/>
<path d="M603.372 323.274V252.885C612.3 252.885 619.532 260.119 619.532 269.048V382.01" stroke="white" stroke-opacity="0.5" stroke-width="2.05614" stroke-miterlimit="10"/>
<path d="M643.088 276.517H619.533" stroke="white" stroke-opacity="0.5" stroke-width="2.05614" stroke-miterlimit="10"/>
<path d="M643.088 299.372H619.533" stroke="white" stroke-opacity="0.5" stroke-width="2.05614" stroke-miterlimit="10"/>
<path d="M1240.99 270.581L1369.35 398.966" stroke="white" stroke-opacity="0.5" stroke-width="2.05614" stroke-miterlimit="10"/>
<path d="M482.262 607.157L615.098 474.298L482.262 341.439V607.157Z" stroke="white" stroke-opacity="0.5" stroke-width="2.05614" stroke-miterlimit="10"/>
<path d="M548.673 591.229V406.778H660.858" stroke="white" stroke-opacity="0.5" stroke-width="2.05614" stroke-miterlimit="10"/>
<path d="M607.758 604.18C604.584 604.18 602.005 601.6 602.005 598.426C602.005 595.251 604.584 592.671 607.758 592.671C610.933 592.671 613.494 595.251 613.494 598.426C613.494 601.6 610.933 604.18 607.758 604.18Z" stroke="white" stroke-opacity="0.5" stroke-width="2.05614" stroke-miterlimit="10"/>
<path d="M672.366 604.18C669.191 604.18 666.612 601.6 666.612 598.426C666.612 595.251 669.191 592.671 672.366 592.671C675.54 592.671 678.101 595.251 678.101 598.426C678.119 601.6 675.54 604.18 672.366 604.18Z" stroke="white" stroke-opacity="0.5" stroke-width="2.05614" stroke-miterlimit="10"/>
<path d="M548.672 604.18C545.498 604.18 542.937 601.6 542.937 598.426C542.937 595.251 545.516 592.671 548.672 592.671C551.828 592.671 554.426 595.251 554.426 598.426C554.426 601.6 551.846 604.18 548.672 604.18Z" stroke="white" stroke-opacity="0.5" stroke-width="2.05614" stroke-miterlimit="10"/>
<path d="M709.499 399.887H660.855V410.855H709.499V399.887Z" stroke="white" stroke-opacity="0.5" stroke-width="2.05614" stroke-miterlimit="10"/>
<path d="M1571.36 250.648C1571.36 264.502 1560.12 275.741 1546.27 275.741H1650.83C1664.68 275.741 1675.91 264.52 1675.91 250.648V193.879H1571.29V250.414" stroke="white" stroke-opacity="0.5" stroke-width="2.05614" stroke-miterlimit="10"/>
<path d="M1571.36 300.815C1571.36 286.961 1560.12 275.723 1546.27 275.723H1650.83C1664.68 275.723 1675.91 286.943 1675.91 300.815V357.585H1571.29V301.05" stroke="white" stroke-opacity="0.5" stroke-width="2.05614" stroke-miterlimit="10"/>
<path d="M1546.29 275.723V193.879H1571.3" stroke="white" stroke-opacity="0.5" stroke-width="2.05614" stroke-miterlimit="10"/>
<path d="M1546.29 275.723V357.585H1571.3" stroke="white" stroke-opacity="0.5" stroke-width="2.05614" stroke-miterlimit="10"/>
<path d="M709.843 406.507H740.053" stroke="white" stroke-opacity="0.5" stroke-width="2.05614" stroke-miterlimit="10"/>
<path d="M678.046 599.255H846.901" stroke="white" stroke-opacity="0.5" stroke-width="2.05614" stroke-miterlimit="10"/>
<path d="M613.44 599.255H666.683" stroke="white" stroke-opacity="0.5" stroke-width="2.05614" stroke-miterlimit="10"/>
<path d="M603.035 595.161L482.192 474.298" stroke="white" stroke-opacity="0.5" stroke-width="2.05614" stroke-miterlimit="10"/>
<path d="M668.52 594.169L581.729 507.347" stroke="white" stroke-opacity="0.5" stroke-width="2.05614" stroke-miterlimit="10"/>
<path d="M1211.56 398.966H1188.4V454.815H1211.56V398.966Z" stroke="white" stroke-opacity="0.5" stroke-width="2.05614" stroke-miterlimit="10"/>
<path d="M1188.4 454.816H1211.54V510.648H1171.88" stroke="white" stroke-opacity="0.5" stroke-width="2.05614" stroke-miterlimit="10"/>
<path d="M1233.99 398.966H1211.54V454.815H1233.99V398.966Z" stroke="white" stroke-opacity="0.5" stroke-width="2.05614" stroke-miterlimit="10"/>
<path d="M1233.99 454.816H1211.54V510.666H1233.99V454.816Z" stroke="white" stroke-opacity="0.5" stroke-width="2.05614" stroke-miterlimit="10"/>
<path d="M1256.45 398.966H1233.99V454.815H1256.45V398.966Z" stroke="white" stroke-opacity="0.5" stroke-width="2.05614" stroke-miterlimit="10"/>
<path d="M1256.45 454.816H1233.99V510.666H1256.45V454.816Z" stroke="white" stroke-opacity="0.5" stroke-width="2.05614" stroke-miterlimit="10"/>
<path d="M1278.89 398.966H1256.43V454.815H1278.89V398.966Z" stroke="white" stroke-opacity="0.5" stroke-width="2.05614" stroke-miterlimit="10"/>
<path d="M1278.89 454.816H1256.43V510.666H1278.89V454.816Z" stroke="white" stroke-opacity="0.5" stroke-width="2.05614" stroke-miterlimit="10"/>
<path d="M1301.34 398.966H1278.88V454.815H1301.34V398.966Z" stroke="white" stroke-opacity="0.5" stroke-width="2.05614" stroke-miterlimit="10"/>
<path d="M1301.34 454.816H1278.88V510.666H1301.34V454.816Z" stroke="white" stroke-opacity="0.5" stroke-width="2.05614" stroke-miterlimit="10"/>
<path d="M1323.78 398.966H1301.32V454.815H1323.78V398.966Z" stroke="white" stroke-opacity="0.5" stroke-width="2.05614" stroke-miterlimit="10"/>
<path d="M1346.23 398.966H1323.78V510.665H1346.23V398.966Z" stroke="white" stroke-opacity="0.5" stroke-width="2.05614" stroke-miterlimit="10"/>
<path d="M1368.67 398.966H1346.22V510.665H1368.67V398.966Z" stroke="white" stroke-opacity="0.5" stroke-width="2.05614" stroke-miterlimit="10"/>
<path d="M1391.13 398.966H1368.67V510.665H1391.13V398.966Z" stroke="white" stroke-opacity="0.5" stroke-width="2.05614" stroke-miterlimit="10"/>
<path d="M1413.56 398.966H1391.11V510.665H1413.56V398.966Z" stroke="white" stroke-opacity="0.5" stroke-width="2.05614" stroke-miterlimit="10"/>
<path d="M1436.02 398.966H1413.56V510.665H1436.02V398.966Z" stroke="white" stroke-opacity="0.5" stroke-width="2.05614" stroke-miterlimit="10"/>
<path d="M1323.78 454.816H1301.32V510.666H1323.78V454.816Z" stroke="white" stroke-opacity="0.5" stroke-width="2.05614" stroke-miterlimit="10"/>
<path d="M1436 398.966H1547.57L1435.94 510.592L1436 398.966Z" stroke="white" stroke-opacity="0.5" stroke-width="2.05614" stroke-miterlimit="10"/>
<path d="M1435.98 398.967L1436 357.585H1547.57L1506.19 398.967" stroke="white" stroke-opacity="0.5" stroke-width="2.05614" stroke-miterlimit="10"/>
<path d="M1188.34 357.585H1436L1380.82 302.403" stroke="white" stroke-opacity="0.5" stroke-width="2.05614" stroke-miterlimit="10"/>
<path d="M313.82 104.08H740.016C701.49 104.08 670.27 72.8541 670.27 34.3224V-214.402" stroke="white" stroke-opacity="0.5" stroke-width="2.05614" stroke-miterlimit="10"/>
<path d="M342.03 104.08H768.225C729.7 104.08 698.48 72.8541 698.48 34.3224V-214.402" stroke="white" stroke-opacity="0.5" stroke-width="2.05614" stroke-miterlimit="10"/>
<path d="M676.458 104.079C637.951 104.079 606.712 72.8536 606.712 34.3219V-12.9229" stroke="white" stroke-opacity="0.5" stroke-width="2.05614" stroke-miterlimit="10"/>
<path d="M616.452 104.08C577.945 104.08 546.706 72.854 546.706 34.3223" stroke="white" stroke-opacity="0.5" stroke-width="2.05614" stroke-miterlimit="10"/>
<path d="M1627.69 658.026C1668.2 658.026 1701.04 625.177 1701.04 584.661C1701.04 544.145 1668.2 511.277 1627.69 511.277H1436.38V658.026H1627.69Z" stroke="white" stroke-opacity="0.5" stroke-width="2.05614" stroke-miterlimit="10"/>
<path d="M1627.69 723.961C1668.2 723.961 1701.04 691.112 1701.04 650.577C1701.04 610.061 1668.2 577.212 1627.69 577.212H1436.38V723.961H1627.69Z" stroke="white" stroke-opacity="0.5" stroke-width="2.05614" stroke-miterlimit="10"/>
<path d="M286.478 286.239H427.935C457.894 286.239 482.17 261.94 482.17 231.995C482.17 202.032 457.894 177.733 427.935 177.733H286.478" stroke="white" stroke-opacity="0.5" stroke-width="2.05614" stroke-miterlimit="10"/>
<path d="M286.478 341.439H427.935C457.894 341.439 482.17 317.14 482.17 287.177C482.17 257.214 457.894 232.915 427.935 232.915H286.478" stroke="white" stroke-opacity="0.5" stroke-width="2.05614" stroke-miterlimit="10"/>
<path d="M1181.35 45.6863C1181.35 71.0314 1201.89 91.5781 1227.23 91.5781C1252.57 91.5781 1273.11 71.0314 1273.11 45.6863V-77.8281H1181.33V45.6863H1181.35Z" stroke="white" stroke-opacity="0.5" stroke-width="2.05614" stroke-miterlimit="10"/>
<path d="M1134.65 45.6863C1134.65 71.0314 1155.19 91.5781 1180.53 91.5781C1205.87 91.5781 1226.42 71.0314 1226.42 45.6863V-77.8281H1134.63V45.6863H1134.65Z" stroke="white" stroke-opacity="0.5" stroke-width="2.05614" stroke-miterlimit="10"/>
<path d="M1226.44 45.6863C1226.44 71.0314 1246.98 91.5781 1272.32 91.5781C1297.66 91.5781 1318.2 71.0314 1318.2 45.6863V-77.8281H1226.42V45.6863H1226.44Z" stroke="white" stroke-opacity="0.5" stroke-width="2.05614" stroke-miterlimit="10"/>
<path d="M1546.29 105.865H1684.05" stroke="white" stroke-opacity="0.5" stroke-width="2.05614" stroke-miterlimit="10"/>
<path d="M1714.03 17.835C1762.63 17.835 1802.02 57.2507 1802.02 105.848C1802.02 154.464 1762.63 193.862 1714.03 193.862H1674.91L1988.01 507.022" stroke="white" stroke-opacity="0.5" stroke-width="2.05614" stroke-miterlimit="10"/>
<path d="M1714.03 121.054C1705.64 121.054 1698.84 114.253 1698.84 105.865C1698.84 97.4765 1705.64 90.6758 1714.03 90.6758C1722.41 90.6758 1729.21 97.4765 1729.21 105.865C1729.21 114.253 1722.41 121.054 1714.03 121.054Z" stroke="white" stroke-opacity="0.5" stroke-width="2.05614" stroke-miterlimit="10"/>
<path d="M1684.05 105.864C1684.05 122.424 1697.47 135.846 1714.03 135.846C1730.58 135.846 1744 122.424 1744 105.864C1744 89.3044 1730.58 75.8832 1714.03 75.8832V18.4824" stroke="white" stroke-opacity="0.5" stroke-width="2.05614" stroke-miterlimit="10"/>
<path d="M1802.15 17.835H1581.59L1549.72 49.7283H1433.94" stroke="white" stroke-opacity="0.5" stroke-width="2.05614" stroke-miterlimit="10"/>
<path d="M1612.25 17.835H1518.95L1487.08 49.7283H1371.29" stroke="white" stroke-opacity="0.5" stroke-width="2.05614" stroke-miterlimit="10"/>
<path d="M1369.41 510.647C1406.17 510.647 1435.95 540.448 1435.95 577.212C1435.95 613.976 1406.15 643.759 1369.41 643.759" stroke="white" stroke-opacity="0.5" stroke-width="2.05614" stroke-miterlimit="10"/>
<path d="M1435.91 577.212H1369.35" stroke="white" stroke-opacity="0.5" stroke-width="2.05614" stroke-miterlimit="10"/>
<path d="M1279.86 600.212L1369.41 510.647V706.175" stroke="white" stroke-opacity="0.5" stroke-width="2.05614" stroke-miterlimit="10"/>
<path d="M1346.22 234.376H1546.29" stroke="white" stroke-opacity="0.5" stroke-width="2.05614" stroke-miterlimit="10"/>
<path d="M1466.04 250.443C1474.7 229.54 1464.77 205.575 1443.87 196.916C1422.97 188.257 1399.01 198.183 1390.36 219.087C1381.7 239.991 1391.62 263.956 1412.52 272.615C1433.42 281.273 1457.39 271.347 1466.04 250.443Z" stroke="white" stroke-opacity="0.5" stroke-width="2.05614" stroke-miterlimit="10"/>
<path d="M1425.08 250.448C1433.74 229.544 1423.81 205.579 1402.91 196.921C1382.01 188.262 1358.05 198.188 1349.39 219.092C1340.74 239.996 1350.66 263.961 1371.56 272.62C1392.46 281.278 1416.42 271.352 1425.08 250.448Z" stroke="white" stroke-opacity="0.5" stroke-width="2.05614" stroke-miterlimit="10"/>
<path d="M1645.11 301.5V342.647" stroke="white" stroke-opacity="0.5" stroke-width="2.05614" stroke-miterlimit="10"/>
<path d="M1622.67 301.5V342.647" stroke="white" stroke-opacity="0.5" stroke-width="2.05614" stroke-miterlimit="10"/>
<path d="M1645.11 210.528V251.676" stroke="white" stroke-opacity="0.5" stroke-width="2.05614" stroke-miterlimit="10"/>
<path d="M1622.67 210.528V251.676" stroke="white" stroke-opacity="0.5" stroke-width="2.05614" stroke-miterlimit="10"/>
<path d="M1782.65 399.85H1675.32V420.865H1782.65V399.85Z" stroke="white" stroke-opacity="0.5" stroke-width="2.05614" stroke-miterlimit="10"/>
<path d="M1809.09 420.65H1675.32V441.666H1809.09V420.65Z" stroke="white" stroke-opacity="0.5" stroke-width="2.05614" stroke-miterlimit="10"/>
<path d="M1756.57 378.6H1675.32V399.615H1756.57V378.6Z" stroke="white" stroke-opacity="0.5" stroke-width="2.05614" stroke-miterlimit="10"/>
<path d="M1728.98 357.585H1675.32V378.601H1728.98V357.585Z" stroke="white" stroke-opacity="0.5" stroke-width="2.05614" stroke-miterlimit="10"/>
<path d="M1576.56 484.364L1562.18 470.004L1533.88 441.665L1562.18 413.343L1576.56 398.966L1591.6 414.011L1577.24 428.388L1563.97 441.665L1577.24 454.942L1591.6 469.319L1576.56 484.364Z" stroke="white" stroke-opacity="0.5" stroke-width="2.05614" stroke-miterlimit="10"/>
<path d="M1606.66 484.364L1591.6 469.319L1577.24 454.942L1563.96 441.665L1577.24 428.388L1591.6 414.011L1606.66 398.966L1649.35 441.665L1606.66 484.364Z" stroke="white" stroke-opacity="0.5" stroke-width="2.05614" stroke-miterlimit="10"/>
<path d="M1547.82 484.364L1505.13 441.665L1547.82 398.966L1562.2 413.343L1533.88 441.665L1562.2 470.004L1547.82 484.364Z" stroke="white" stroke-opacity="0.5" stroke-width="2.05614" stroke-miterlimit="10"/>
<path d="M797.354 12.6927V103.574H974.776V-22.7725H831.406L797.354 12.6927Z" stroke="white" stroke-opacity="0.5" stroke-width="2.05614" stroke-miterlimit="10"/>
<path d="M974.776 85.6064V-40.7402H831.406L797.354 -5.27518V85.6064" stroke="white" stroke-opacity="0.5" stroke-width="2.05614" stroke-miterlimit="10"/>
<path d="M831.586 -20.9688V14.4964H797.354" stroke="white" stroke-opacity="0.5" stroke-width="2.05614" stroke-miterlimit="10"/>
<path d="M945.504 -4.01172V84.8314" stroke="white" stroke-opacity="0.5" stroke-width="2.05614" stroke-miterlimit="10"/>
<path d="M926.567 -4.01172H893.543V84.8314H926.567V-4.01172Z" stroke="white" stroke-opacity="0.5" stroke-width="2.05614" stroke-miterlimit="10"/>
<path d="M352.472 407.914V474.298H479.825H482.062V382.01H377.344L352.472 407.914Z" stroke="white" stroke-opacity="0.5" stroke-width="2.05614" stroke-miterlimit="10"/>
<path d="M352.472 409.23H377.47V383.326V341.457" stroke="white" stroke-opacity="0.5" stroke-width="2.05614" stroke-miterlimit="10"/>
<path d="M460.688 395.702V460.607" stroke="white" stroke-opacity="0.5" stroke-width="2.05614" stroke-miterlimit="10"/>
<path d="M446.857 395.702H422.742V460.589H446.857V395.702Z" stroke="white" stroke-opacity="0.5" stroke-width="2.05614" stroke-miterlimit="10"/>
<path d="M1346.21 151.36L1327.85 169.742" stroke="white" stroke-opacity="0.5" stroke-width="2.05614" stroke-miterlimit="10"/>
<path d="M1346.21 175.516L1327.85 193.88" stroke="white" stroke-opacity="0.5" stroke-width="2.05614" stroke-miterlimit="10"/>
<path d="M1346.21 199.668L1327.85 218.032" stroke="white" stroke-opacity="0.5" stroke-width="2.05614" stroke-miterlimit="10"/>
<path d="M1346.21 223.823L1327.85 242.187" stroke="white" stroke-opacity="0.5" stroke-width="2.05614" stroke-miterlimit="10"/>
<path d="M1346.21 247.978L1327.85 266.341" stroke="white" stroke-opacity="0.5" stroke-width="2.05614" stroke-miterlimit="10"/>
<path d="M1346.21 272.133L1327.85 290.497" stroke="white" stroke-opacity="0.5" stroke-width="2.05614" stroke-miterlimit="10"/>
<path d="M1346.21 296.287L1327.85 314.651" stroke="white" stroke-opacity="0.5" stroke-width="2.05614" stroke-miterlimit="10"/>
<path d="M1346.21 320.442L1327.85 338.806" stroke="white" stroke-opacity="0.5" stroke-width="2.05614" stroke-miterlimit="10"/>
<path d="M1327.85 133.898V357.585" stroke="white" stroke-opacity="0.5" stroke-width="2.05614" stroke-miterlimit="10"/>
<path d="M1346.22 133.898V357.585" stroke="white" stroke-opacity="0.5" stroke-width="2.05614" stroke-miterlimit="10"/>
<path d="M740.072 199.019C714.028 199.019 692.926 177.913 692.926 151.864C692.926 125.816 714.028 104.71 740.072 104.71V199.019Z" stroke="white" stroke-opacity="0.5" stroke-width="2.05614" stroke-miterlimit="10"/>
<path d="M706.741 118.511L740.072 151.865L706.741 185.202" stroke="white" stroke-opacity="0.5" stroke-width="2.05614" stroke-miterlimit="10"/>
<path d="M692.926 151.864H740.072" stroke="white" stroke-opacity="0.5" stroke-width="2.05614" stroke-miterlimit="10"/>
<path d="M539.528 283.984H482.064V341.457H539.528V283.984Z" stroke="white" stroke-opacity="0.5" stroke-width="2.05614" stroke-miterlimit="10"/>
<path d="M539.527 283.985L570.748 252.759" stroke="white" stroke-opacity="0.5" stroke-width="2.05614" stroke-miterlimit="10"/>
<path d="M482.064 283.985L513.285 252.759" stroke="white" stroke-opacity="0.5" stroke-width="2.05614" stroke-miterlimit="10"/>
<path d="M1334.53 90.4785H1293.82V131.193H1334.53V90.4785Z" stroke="white" stroke-opacity="0.5" stroke-width="2.05614" stroke-miterlimit="10"/>
<path d="M1375.21 90.4785H1334.51V131.193H1375.21V90.4785Z" stroke="white" stroke-opacity="0.5" stroke-width="2.05614" stroke-miterlimit="10"/>
<path d="M1415.92 90.4785H1375.22V131.193H1415.92V90.4785Z" stroke="white" stroke-opacity="0.5" stroke-width="2.05614" stroke-miterlimit="10"/>
<path d="M1375.21 49.7275H1334.51V90.4421H1375.21V49.7275Z" stroke="white" stroke-opacity="0.5" stroke-width="2.05614" stroke-miterlimit="10"/>
<path d="M1415.92 49.7275H1375.22V90.4421H1415.92V49.7275Z" stroke="white" stroke-opacity="0.5" stroke-width="2.05614" stroke-miterlimit="10"/>
<path d="M1293.82 131.174L1164.17 260.84" stroke="white" stroke-opacity="0.5" stroke-width="2.05614" stroke-miterlimit="10"/>
<path d="M661.829 104.078V252.757H513.156L661.829 104.078Z" stroke="white" stroke-opacity="0.5" stroke-width="2.05614" stroke-miterlimit="10"/>
<path d="M632.994 132.906V223.932H542.001" stroke="white" stroke-opacity="0.5" stroke-width="2.05614" stroke-miterlimit="10"/>
<path d="M1490.29 305.469C1487.13 305.469 1484.57 302.907 1484.57 299.75C1484.57 296.593 1487.13 294.05 1490.29 294.05C1493.45 294.05 1495.99 296.611 1495.99 299.75C1495.99 302.907 1493.43 305.469 1490.29 305.469Z" stroke="white" stroke-opacity="0.5" stroke-width="2.05614" stroke-miterlimit="10"/>
<path d="M1494.96 305.469L1545.62 356.141" stroke="white" stroke-opacity="0.5" stroke-width="2.05614" stroke-miterlimit="10"/>
<path d="M1454.85 305.469C1451.69 305.469 1449.13 302.907 1449.13 299.75C1449.13 296.593 1451.69 294.05 1454.85 294.05C1458 294.05 1460.56 296.611 1460.56 299.75C1460.56 302.907 1458 305.469 1454.85 305.469Z" stroke="white" stroke-opacity="0.5" stroke-width="2.05614" stroke-miterlimit="10"/>
<path d="M686.14 245.037C662.369 245.037 643.088 264.321 643.088 288.097C643.088 311.872 662.369 331.156 686.14 331.156H740.285V245.037H686.14Z" stroke="white" stroke-opacity="0.5" stroke-width="2.05614" stroke-miterlimit="10"/>
<path d="M739.997 245.038V228.388H686.267C672.776 228.388 661.828 238.021 661.828 249.908" stroke="white" stroke-opacity="0.5" stroke-width="2.05614" stroke-miterlimit="10"/>
<path d="M739.857 348.186H686.181C672.69 348.186 661.761 337.958 661.616 324.429" stroke="white" stroke-opacity="0.5" stroke-width="2.05614" stroke-miterlimit="10"/>
<path d="M1157.95 324.428V324.41C1157.95 315.192 1165.42 307.706 1174.65 307.706H1203.35C1212.56 307.706 1220.05 315.174 1220.05 324.41V324.428C1220.05 333.646 1212.58 341.133 1203.35 341.133H1174.65C1165.43 341.115 1157.95 333.646 1157.95 324.428Z" stroke="white" stroke-opacity="0.5" stroke-width="2.05614" stroke-miterlimit="10"/>
<path d="M1215.28 336.282C1221.77 329.787 1221.77 319.256 1215.28 312.761C1208.78 306.266 1198.25 306.266 1191.76 312.761C1185.26 319.256 1185.26 329.787 1191.76 336.282C1198.25 342.777 1208.78 342.777 1215.28 336.282Z" stroke="white" stroke-opacity="0.5" stroke-width="2.05614" stroke-miterlimit="10"/>
<path d="M1546.29 90.4414H1443.09V193.662H1546.29V90.4414Z" stroke="white" stroke-opacity="0.5" stroke-width="2.05614" stroke-miterlimit="10"/>
<path d="M1945.7 90.4773C1945.7 70.2553 1929.4 53.8215 1909.2 53.6592H1908.89V53.8396C1908.89 66.7377 1902.25 78.0843 1892.22 84.6686C1891.97 84.8309 1891.72 84.9933 1891.47 85.1376" stroke="white" stroke-opacity="0.5" stroke-width="2.05614" stroke-miterlimit="10"/>
<path d="M1909.2 53.6593H1908.87C1908.87 34.195 1893.78 18.2483 1874.64 16.9315C1874.69 16.9315 1874.76 16.9134 1874.82 16.9134C1875.14 16.8954 1875.45 16.8593 1875.77 16.8232H1945.7C1945.7 37.0632 1929.4 53.4789 1909.2 53.6593Z" stroke="white" stroke-opacity="0.5" stroke-width="2.05614" stroke-miterlimit="10"/>
<path d="M1972.04 79.7061C1986.42 65.3209 1986.42 41.9977 1972.04 27.6124C1957.66 13.2272 1934.34 13.2272 1919.96 27.6125C1905.57 41.9977 1905.57 65.3207 1919.96 79.7059C1934.34 94.0912 1957.66 94.0913 1972.04 79.7061Z" stroke="white" stroke-opacity="0.5" stroke-width="2.05614" stroke-miterlimit="10"/>
<path d="M1835.55 53.6593H1835.25C1835.25 34.195 1820.13 18.2483 1801.01 16.9315C1801.39 16.9134 1801.77 16.8774 1802.15 16.8232H1872.06C1872.06 37.0813 1855.74 53.4969 1835.55 53.6593Z" stroke="white" stroke-opacity="0.5" stroke-width="2.05614" stroke-miterlimit="10"/>
<path d="M1898.39 79.7147C1912.77 65.3295 1912.77 42.0063 1898.39 27.621C1884 13.2358 1860.69 13.2359 1846.3 27.6211C1831.92 42.0064 1831.92 65.3295 1846.3 79.7147C1860.69 94.1 1884 94.1 1898.39 79.7147Z" stroke="white" stroke-opacity="0.5" stroke-width="2.05614" stroke-miterlimit="10"/>
<path d="M1801.01 90.586C1820.13 89.2511 1835.23 73.3045 1835.23 53.8582V53.6777C1855.57 53.6777 1872.06 70.1657 1872.06 90.5139" stroke="white" stroke-opacity="0.5" stroke-width="2.05614" stroke-miterlimit="10"/>
<path d="M2110.08 16.8232H1955.91H1948.84H1948.19H1803.36H1801.01V16.8594V41.4107V65.962V90.4774H2150.74" stroke="white" stroke-opacity="0.5" stroke-width="2.05614" stroke-miterlimit="10"/>
<path d="M444.75 171.925C444.497 172.087 444.245 172.25 443.992 172.394" stroke="white" stroke-opacity="0.5" stroke-width="2.05614" stroke-miterlimit="10"/>
<path d="M427.195 104.169C427.249 104.169 427.304 104.169 427.376 104.151C427.7 104.133 428.007 104.097 428.332 104.061" stroke="white" stroke-opacity="0.5" stroke-width="2.05614" stroke-miterlimit="10"/>
<path d="M535.215 141.06C555.433 141.06 571.864 157.367 572.027 177.571V177.878H571.846" stroke="white" stroke-opacity="0.5" stroke-width="2.05614" stroke-miterlimit="10"/>
<path d="M608.858 141.06C588.622 141.06 572.209 157.367 572.028 177.571V177.896" stroke="white" stroke-opacity="0.5" stroke-width="2.05614" stroke-miterlimit="10"/>
<path d="M535.215 140.735C535.215 161.083 551.7 177.571 572.045 177.571C592.372 177.571 608.875 161.083 608.875 140.735C608.875 120.405 592.39 103.917 572.045 103.917C551.7 103.917 535.215 120.405 535.215 140.735Z" stroke="white" stroke-opacity="0.5" stroke-width="2.05614" stroke-miterlimit="10"/>
<path d="M461.429 141.06C481.647 141.06 498.078 157.367 498.241 177.571V177.878H498.06" stroke="white" stroke-opacity="0.5" stroke-width="2.05614" stroke-miterlimit="10"/>
<path d="M535.071 141.06C514.835 141.06 498.422 157.367 498.241 177.571V177.896" stroke="white" stroke-opacity="0.5" stroke-width="2.05614" stroke-miterlimit="10"/>
<path d="M461.414 140.735C461.414 161.083 477.899 177.571 498.244 177.571C518.589 177.571 535.074 161.083 535.074 140.735C535.074 120.405 518.589 103.917 498.244 103.917C477.899 103.917 461.414 120.405 461.414 140.735Z" stroke="white" stroke-opacity="0.5" stroke-width="2.05614" stroke-miterlimit="10"/>
<path d="M387.629 141.06C407.847 141.06 424.278 157.367 424.441 177.571V177.878H424.26" stroke="white" stroke-opacity="0.5" stroke-width="2.05614" stroke-miterlimit="10"/>
<path d="M461.27 141.06C441.034 141.06 424.621 157.367 424.44 177.571V177.896" stroke="white" stroke-opacity="0.5" stroke-width="2.05614" stroke-miterlimit="10"/>
<path d="M387.607 140.735C387.607 161.083 404.093 177.571 424.437 177.571C444.764 177.571 461.267 161.083 461.267 140.735C461.267 120.405 444.782 103.917 424.437 103.917C404.093 103.917 387.607 120.405 387.607 140.735Z" stroke="white" stroke-opacity="0.5" stroke-width="2.05614" stroke-miterlimit="10"/>
<path d="M387.463 141.06C367.226 141.06 350.813 157.367 350.633 177.571V177.896" stroke="white" stroke-opacity="0.5" stroke-width="2.05614" stroke-miterlimit="10"/>
<path d="M313.82 140.735C313.82 161.083 330.305 177.571 350.65 177.571C370.995 177.571 387.48 161.083 387.48 140.735C387.48 120.405 370.995 103.917 350.65 103.917C330.305 103.917 313.82 120.405 313.82 140.735Z" stroke="white" stroke-opacity="0.5" stroke-width="2.05614" stroke-miterlimit="10"/>
<path d="M353.536 104.169C353.915 104.151 354.294 104.115 354.672 104.061H424.581" stroke="white" stroke-opacity="0.5" stroke-width="2.05614" stroke-miterlimit="10"/>
<path d="M1589.5 231L1417.93 302.275M1417.93 302.275L1460.57 344.92H1500.05L1417.93 302.275Z" stroke="white" stroke-opacity="0.5" stroke-width="2.05614" stroke-miterlimit="10"/>
<path d="M1191.86 159.333C1172.89 159.333 1157.52 143.964 1157.52 124.986C1157.52 106.009 1172.9 90.6396 1191.86 90.6396C1210.82 90.6396 1226.2 106.009 1226.2 124.986C1226.2 143.964 1210.83 159.333 1191.86 159.333Z" stroke="white" stroke-opacity="0.5" stroke-width="2.05614" stroke-miterlimit="10"/>
<path d="M1063.26 -6.96973L1168.28 98.0727" stroke="white" stroke-opacity="0.5" stroke-width="2.05614" stroke-miterlimit="10"/>
<path d="M1256.43 555.438H1237.49V574.379H1256.43V555.438Z" stroke="white" stroke-opacity="0.5" stroke-width="2.05614" stroke-miterlimit="10"/>
<path d="M1256.43 589.117H1237.49V608.058H1256.43V589.117Z" stroke="white" stroke-opacity="0.5" stroke-width="2.05614" stroke-miterlimit="10"/>
<path d="M1256.43 622.778H1237.49V641.719H1256.43V622.778Z" stroke="white" stroke-opacity="0.5" stroke-width="2.05614" stroke-miterlimit="10"/>
<path d="M1226.58 555.438H1207.64V574.379H1226.58V555.438Z" stroke="white" stroke-opacity="0.5" stroke-width="2.05614" stroke-miterlimit="10"/>
<path d="M1226.58 589.117H1207.64V608.058H1226.58V589.117Z" stroke="white" stroke-opacity="0.5" stroke-width="2.05614" stroke-miterlimit="10"/>
<path d="M1226.58 622.778H1207.64V641.719H1226.58V622.778Z" stroke="white" stroke-opacity="0.5" stroke-width="2.05614" stroke-miterlimit="10"/>
<path d="M1196.73 555.438V574.379H1177.79L1196.73 555.438Z" stroke="white" stroke-opacity="0.5" stroke-width="2.05614" stroke-miterlimit="10"/>
<path d="M1196.73 589.117H1177.79V608.058H1196.73V589.117Z" stroke="white" stroke-opacity="0.5" stroke-width="2.05614" stroke-miterlimit="10"/>
<path d="M1196.73 622.778H1177.79V641.719H1196.73V622.778Z" stroke="white" stroke-opacity="0.5" stroke-width="2.05614" stroke-miterlimit="10"/>
<path d="M1683.82 17.7617H1662.44V39.1381H1683.82V17.7617Z" stroke="white" stroke-opacity="0.5" stroke-width="2.05614" stroke-miterlimit="10"/>
<path d="M1683.82 55.7881H1662.44V77.1645H1683.82V55.7881Z" stroke="white" stroke-opacity="0.5" stroke-width="2.05614" stroke-miterlimit="10"/>
<path d="M1650.12 17.7617H1628.75V39.1381H1650.12V17.7617Z" stroke="white" stroke-opacity="0.5" stroke-width="2.05614" stroke-miterlimit="10"/>
<path d="M1650.12 55.7881H1628.75V77.1645H1650.12V55.7881Z" stroke="white" stroke-opacity="0.5" stroke-width="2.05614" stroke-miterlimit="10"/>
<path d="M1616.43 17.7617H1595.06V39.1381H1616.43V17.7617Z" stroke="white" stroke-opacity="0.5" stroke-width="2.05614" stroke-miterlimit="10"/>
<path d="M1616.43 55.7881H1595.06V77.1645H1616.43V55.7881Z" stroke="white" stroke-opacity="0.5" stroke-width="2.05614" stroke-miterlimit="10"/>
<path d="M968.445 663.728H933.437C919.206 663.728 907.663 652.184 907.663 637.951V612.497" stroke="white" stroke-opacity="0.5" stroke-width="2.05614" stroke-miterlimit="10"/>
<path d="M1179.11 574.597H1153.6C1139.37 574.597 1127.83 586.142 1127.83 600.375V682.111" stroke="white" stroke-opacity="0.5" stroke-width="2.05614" stroke-miterlimit="10"/>
<path d="M350.796 -7.40338V29.7574C350.796 43.9903 362.537 55.5355 377.002 55.5355H396.049H438.542H476.31C490.793 55.5355 502.516 43.9903 502.516 29.7574V-10.9932" stroke="white" stroke-opacity="0.5" stroke-width="2.05614" stroke-miterlimit="10"/>
<path d="M1974.97 559.587H1922.24C1902.02 559.587 1885.64 575.985 1885.64 596.189V645.886V705.217V757.964C1885.64 778.186 1911.38 794.566 1931.6 794.566H1981.29" stroke="white" stroke-opacity="0.5" stroke-width="2.05614" stroke-miterlimit="10"/>
<path d="M739.852 382.01H523.725" stroke="white" stroke-opacity="0.5" stroke-width="2.05614" stroke-miterlimit="10"/>
<path d="M376.137 570.484C376.137 553.148 390.187 539.096 407.52 539.096C424.852 539.096 438.903 553.148 438.903 570.484C438.903 587.82 424.852 601.872 407.52 601.872C390.187 601.872 376.137 587.82 376.137 570.484Z" stroke="white" stroke-opacity="0.5" stroke-width="2.05614" stroke-miterlimit="10"/>
<path d="M419.732 541.674V519.594H395.329V541.674" stroke="white" stroke-opacity="0.5" stroke-width="2.05614" stroke-miterlimit="10"/>
<path d="M419.732 511.151H395.329" stroke="white" stroke-opacity="0.5" stroke-width="2.05614" stroke-miterlimit="10"/>
<path d="M419.732 502.711H395.329" stroke="white" stroke-opacity="0.5" stroke-width="2.05614" stroke-miterlimit="10"/>
<path d="M1675.32 441.665L1891.47 657.847" stroke="white" stroke-opacity="0.5" stroke-width="2.05614" stroke-miterlimit="10"/>
<path d="M1160.35 106.568L1055.05 1.2373" stroke="white" stroke-opacity="0.5" stroke-width="2.05614" stroke-miterlimit="10"/>
<path d="M407.519 502.71V474.298" stroke="white" stroke-opacity="0.5" stroke-width="2.05614" stroke-miterlimit="10"/>
<path d="M1059.27 582.155H968.442" stroke="white" stroke-opacity="0.5" stroke-width="2.05614" stroke-miterlimit="10"/>
<path d="M1057.76 227.432H1082.36" stroke="white" stroke-opacity="0.5" stroke-width="2.05614" stroke-miterlimit="10"/>
<path d="M1799.42 127.169H1990.39" stroke="white" stroke-opacity="0.5" stroke-width="2.05614" stroke-miterlimit="10"/>
<path d="M1216.12 124.987C1216.12 138.39 1205.26 149.25 1191.86 149.25" stroke="white" stroke-opacity="0.5" stroke-width="2.05614" stroke-miterlimit="10"/>
<path d="M1758.94 442.062C1777.91 442.062 1793.28 457.432 1793.28 476.409C1793.28 495.386 1777.91 510.756 1758.94 510.756C1739.96 510.756 1724.6 495.368 1724.6 476.409C1724.6 457.45 1739.98 442.062 1758.94 442.062Z" stroke="white" stroke-opacity="0.5" stroke-width="2.05614" stroke-miterlimit="10"/>
<path d="M1847.58 568.426L1782.51 503.341" stroke="white" stroke-opacity="0.5" stroke-width="2.05614" stroke-miterlimit="10"/>
<path d="M1789.36 493.744L1847.58 551.993" stroke="white" stroke-opacity="0.5" stroke-width="2.05614" stroke-miterlimit="10"/>
<path d="M1734.68 476.408C1734.68 463.005 1745.54 452.146 1758.94 452.146" stroke="white" stroke-opacity="0.5" stroke-width="2.05614" stroke-miterlimit="10"/>
<path d="M692.923 434.161H692.941C702.158 434.161 709.643 441.647 709.643 450.865V479.548C709.643 488.766 702.176 496.252 692.941 496.252H692.923C683.707 496.252 676.222 488.784 676.222 479.548V450.847C676.222 441.629 683.689 434.161 692.923 434.161Z" stroke="white" stroke-opacity="0.5" stroke-width="2.05614" stroke-miterlimit="10"/>
<path d="M676.222 479.62C676.222 470.438 683.671 462.987 692.851 462.987C702.031 462.987 709.48 470.438 709.48 479.62C709.48 488.802 702.031 496.252 692.851 496.252C683.671 496.252 676.222 488.802 676.222 479.62Z" stroke="white" stroke-opacity="0.5" stroke-width="2.05614" stroke-miterlimit="10"/>
<path d="M1872.06 257.34V389.116" stroke="white" stroke-opacity="0.5" stroke-width="2.05614" stroke-miterlimit="10"/>
<path d="M1675.32 357.584L1756.12 276.768L1769.97 262.914L1871.46 364.439" stroke="white" stroke-opacity="0.5" stroke-width="2.05614" stroke-miterlimit="10"/>
<path d="M482.264 607.156L425.378 664.052" stroke="white" stroke-opacity="0.5" stroke-width="2.05614" stroke-miterlimit="10"/>
<path d="M672.36 604.181V665.496" stroke="white" stroke-opacity="0.5" stroke-width="2.05614" stroke-miterlimit="10"/>
<path d="M607.29 604.181V684.744" stroke="white" stroke-opacity="0.5" stroke-width="2.05614" stroke-miterlimit="10"/>
<path d="M1871.93 391.011H1809.1V453.859H1871.93V391.011Z" stroke="white" stroke-opacity="0.5" stroke-width="2.05614" stroke-miterlimit="10"/>
<path d="M1910.19 492.824V428.695V127.169L1980.83 197.829" stroke="white" stroke-opacity="0.5" stroke-width="2.05614" stroke-miterlimit="10"/>
<path d="M1606.66 484.364H1460.56" stroke="white" stroke-opacity="0.5" stroke-width="2.05614" stroke-miterlimit="10"/>
<path d="M1809.1 453.877L1847.58 492.373L1910.06 492.463L1871.77 453.877" stroke="white" stroke-opacity="0.5" stroke-width="2.05614" stroke-miterlimit="10"/>
<path d="M1847.58 492.373V613.957" stroke="white" stroke-opacity="0.5" stroke-width="2.05614" stroke-miterlimit="10"/>
<path d="M797.554 55.2822H473.047" stroke="white" stroke-opacity="0.5" stroke-width="2.05614" stroke-miterlimit="10"/>
<path d="M1302.55 577.52L1386.45 661.438" stroke="white" stroke-opacity="0.5" stroke-width="2.05614" stroke-miterlimit="10"/>
<path d="M1709.1 228.081C1730.11 207.065 1764.16 207.065 1785.18 228.081C1806.19 249.097 1806.19 283.155 1785.18 304.171" stroke="white" stroke-opacity="0.5" stroke-width="2.05614" stroke-miterlimit="10"/>
<path d="M1801.01 90.4785V262.915" stroke="white" stroke-opacity="0.5" stroke-width="2.05614" stroke-miterlimit="10"/>
<path d="M376.518 55.9873L424.44 103.918" stroke="white" stroke-opacity="0.5" stroke-width="2.05614" stroke-miterlimit="10"/>
<path d="M498.244 104.224L450.016 55.9873" stroke="white" stroke-opacity="0.5" stroke-width="2.05614" stroke-miterlimit="10"/>
<path d="M482.264 541.115L368.077 655.321" stroke="white" stroke-opacity="0.5" stroke-width="2.05614" stroke-miterlimit="10"/>
<path d="M1278.88 687.36V556.233L1325.15 510.647" stroke="white" stroke-opacity="0.5" stroke-width="2.05614" stroke-miterlimit="10"/>
<path d="M546.706 31.6881V-12.9229" stroke="white" stroke-opacity="0.5" stroke-width="2.05614" stroke-miterlimit="10"/>
<path d="M1973.17 536.371H1864.66V693.511" stroke="white" stroke-opacity="0.5" stroke-width="2.05614" stroke-miterlimit="10"/>
<path d="M352.472 474.298V655.321" stroke="white" stroke-opacity="0.5" stroke-width="2.05614" stroke-miterlimit="10"/>
<path d="M352.477 409.23L287.492 474.208" stroke="white" stroke-opacity="0.5" stroke-width="2.05614" stroke-miterlimit="10"/>
<path d="M376.137 474.298V661.761" stroke="white" stroke-opacity="0.5" stroke-width="2.05614" stroke-miterlimit="10"/>
<path d="M539.525 341.458L570.746 310.232V252.759H513.282" stroke="white" stroke-opacity="0.5" stroke-width="2.05614" stroke-miterlimit="10"/>
<path d="M603.372 322.173V382.009" stroke="white" stroke-opacity="0.5" stroke-width="2.05614" stroke-miterlimit="10"/>
<path d="M1910.19 370.067H1965.11" stroke="white" stroke-opacity="0.5" stroke-width="2.05614" stroke-miterlimit="10"/>
<path d="M1910.19 354.139H1965.11" stroke="white" stroke-opacity="0.5" stroke-width="2.05614" stroke-miterlimit="10"/>
<path d="M1910.19 338.21H1965.11" stroke="white" stroke-opacity="0.5" stroke-width="2.05614" stroke-miterlimit="10"/>
<path d="M1910.19 322.301H1965.11" stroke="white" stroke-opacity="0.5" stroke-width="2.05614" stroke-miterlimit="10"/>
<path d="M1910.19 306.371H1965.11" stroke="white" stroke-opacity="0.5" stroke-width="2.05614" stroke-miterlimit="10"/>
<path d="M1910.19 290.443H1965.11" stroke="white" stroke-opacity="0.5" stroke-width="2.05614" stroke-miterlimit="10"/>
<path d="M907.684 614.065H968.447V713.389" stroke="white" stroke-opacity="0.5" stroke-width="2.05614" stroke-miterlimit="10"/>
<path d="M1530.8 105.937H1458.56V178.184H1530.8V105.937Z" stroke="white" stroke-opacity="0.5" stroke-width="2.05614" stroke-miterlimit="10"/>
<path d="M1443.09 193.662H1384.18" stroke="white" stroke-opacity="0.5" stroke-width="2.05614" stroke-miterlimit="10"/>
<path d="M615.095 474.298L740.573 599.797V684.743" stroke="white" stroke-opacity="0.5" stroke-width="2.05614" stroke-miterlimit="10"/>
<path d="M570.745 310.231V382.01" stroke="white" stroke-opacity="0.5" stroke-width="2.05614" stroke-miterlimit="10"/>
<path d="M1026.43 29.8666L1202.66 -146.395" stroke="white" stroke-opacity="0.5" stroke-width="2.05614" stroke-miterlimit="10"/>
<path d="M1462.12 -113.167L1342.68 6.2891V-47.7564L1408.13 -113.221H1462.12H1632.63" stroke="white" stroke-opacity="0.5" stroke-width="2.05614" stroke-miterlimit="10"/>
<path d="M1802.01 16.931C1759.13 16.931 1724.4 -17.8305 1724.4 -60.6917C1724.4 -103.571 1759.13 -138.314 1802.01 -138.314C1844.86 -138.314 1879.62 -103.553 1879.62 -60.6917C1879.62 -17.8305 1844.86 16.931 1802.01 16.931Z" stroke="white" stroke-opacity="0.5" stroke-width="2.05614" stroke-miterlimit="10"/>
<path d="M1802.01 3.88936C1766.35 3.88936 1737.44 -25.0275 1737.44 -60.691C1737.44 -96.3545 1766.35 -125.271 1802.01 -125.271C1837.66 -125.271 1866.58 -96.3545 1866.58 -60.691" stroke="white" stroke-opacity="0.5" stroke-width="2.05614" stroke-miterlimit="10"/>
<path d="M724.651 -8.79184L758.325 24.9054V-1.19729L724.651 -34.8945V-8.79184Z" stroke="white" stroke-opacity="0.5" stroke-width="2.05614" stroke-miterlimit="10"/>
<path d="M1447.29 8.94087L1475.84 -19.6152" stroke="white" stroke-opacity="0.5" stroke-width="2.05614" stroke-miterlimit="10"/>
<path d="M1966.19 -469.911H353.247V632.249H1966.19V-469.911Z" stroke="white" stroke-opacity="0.5" stroke-width="2.05614" stroke-miterlimit="10"/>
</g>
<g clip-path="url(#clip1_1209_4)">
<path d="M120.693 594.854C118.457 592.617 118.457 589.009 120.693 586.772C122.929 584.536 126.537 584.536 128.773 586.772C131.01 589.009 131.01 592.617 128.773 594.854C126.537 597.073 122.911 597.073 120.693 594.854Z" stroke="white" stroke-opacity="0.5" stroke-width="2.05614" stroke-miterlimit="10"/>
<path d="M6.32422 471.953L120.421 586.069" stroke="white" stroke-opacity="0.5" stroke-width="2.05614" stroke-miterlimit="10"/>
<path d="M120.693 534.26C118.457 532.023 118.457 528.415 120.693 526.179C122.929 523.942 126.537 523.942 128.773 526.179C131.01 528.415 131.01 532.023 128.773 534.26C126.537 536.497 122.911 536.497 120.693 534.26Z" stroke="white" stroke-opacity="0.5" stroke-width="2.05614" stroke-miterlimit="10"/>
<path d="M36.626 442.098L120.693 526.178" stroke="white" stroke-opacity="0.5" stroke-width="2.05614" stroke-miterlimit="10"/>
<path d="M128.756 555.547C130.992 557.766 130.992 561.391 128.756 563.628C126.519 565.847 122.912 565.847 120.675 563.628C118.439 561.391 118.439 557.784 120.675 555.547C122.912 553.31 126.537 553.31 128.756 555.547Z" stroke="white" stroke-opacity="0.5" stroke-width="2.05614" stroke-miterlimit="10"/>
<path d="M236.142 669.753L130.432 564.025" stroke="white" stroke-opacity="0.5" stroke-width="2.05614" stroke-miterlimit="10"/>
<path d="M296.961 290.443C276.201 290.334 259.392 273.486 259.392 252.687C280.151 252.795 296.961 269.661 296.961 290.443Z" stroke="white" stroke-opacity="0.5" stroke-width="2.05614" stroke-miterlimit="10"/>
<path d="M259.391 252.687C259.391 273.486 242.599 290.352 221.821 290.443C221.821 269.661 238.631 252.795 259.391 252.687Z" stroke="white" stroke-opacity="0.5" stroke-width="2.05614" stroke-miterlimit="10"/>
<path d="M296.961 249.133C276.201 249.025 259.392 232.176 259.392 211.377C280.151 211.467 296.961 228.334 296.961 249.133Z" stroke="white" stroke-opacity="0.5" stroke-width="2.05614" stroke-miterlimit="10"/>
<path d="M259.391 211.358C259.391 232.158 242.599 249.024 221.821 249.114C221.821 228.333 238.631 211.467 259.391 211.358Z" stroke="white" stroke-opacity="0.5" stroke-width="2.05614" stroke-miterlimit="10"/>
<path d="M296.961 206.254C276.201 206.164 259.392 189.297 259.392 168.498C280.151 168.588 296.961 185.455 296.961 206.254Z" stroke="white" stroke-opacity="0.5" stroke-width="2.05614" stroke-miterlimit="10"/>
<path d="M259.391 168.498C259.391 189.297 242.599 206.164 221.821 206.272C221.821 185.455 238.631 168.606 259.391 168.498Z" stroke="white" stroke-opacity="0.5" stroke-width="2.05614" stroke-miterlimit="10"/>
<path d="M296.961 164.925C276.201 164.817 259.392 147.95 259.392 127.169C280.151 127.277 296.961 144.144 296.961 164.925Z" stroke="white" stroke-opacity="0.5" stroke-width="2.05614" stroke-miterlimit="10"/>
<path d="M259.391 127.169C259.391 147.95 242.599 164.835 221.821 164.925C221.821 144.144 238.631 127.277 259.391 127.169Z" stroke="white" stroke-opacity="0.5" stroke-width="2.05614" stroke-miterlimit="10"/>
<path d="M-41.3629 250.648C-41.3629 264.502 -52.5994 275.741 -66.4512 275.741H38.1046C51.9564 275.741 63.1929 264.52 63.1929 250.648V193.879H-41.435V250.414" stroke="white" stroke-opacity="0.5" stroke-width="2.05614" stroke-miterlimit="10"/>
<path d="M-41.3629 300.815C-41.3629 286.961 -52.5994 275.723 -66.4512 275.723H38.1046C51.9564 275.723 63.1929 286.943 63.1929 300.815V357.585H-41.435V301.05" stroke="white" stroke-opacity="0.5" stroke-width="2.05614" stroke-miterlimit="10"/>
<path d="M14.9652 658.026C55.4745 658.026 88.3185 625.177 88.3185 584.661C88.3185 544.145 55.4745 511.277 14.9652 511.277H-176.345V658.026H14.9652Z" stroke="white" stroke-opacity="0.5" stroke-width="2.05614" stroke-miterlimit="10"/>
<path d="M14.9652 723.961C55.4745 723.961 88.3185 691.112 88.3185 650.577C88.3185 610.061 55.4745 577.212 14.9652 577.212H-176.345V723.961H14.9652Z" stroke="white" stroke-opacity="0.5" stroke-width="2.05614" stroke-miterlimit="10"/>
<path d="M-66.4336 105.865H71.3269" stroke="white" stroke-opacity="0.5" stroke-width="2.05614" stroke-miterlimit="10"/>
<path d="M101.304 17.835C149.912 17.835 189.303 57.2507 189.303 105.848C189.303 154.464 149.912 193.862 101.304 193.862H62.1836L375.292 507.022" stroke="white" stroke-opacity="0.5" stroke-width="2.05614" stroke-miterlimit="10"/>
<path d="M101.304 121.054C92.9168 121.054 86.1172 114.253 86.1172 105.865C86.1172 97.4765 92.9168 90.6758 101.304 90.6758C109.69 90.6758 116.49 97.4765 116.49 105.865C116.49 114.253 109.69 121.054 101.304 121.054Z" stroke="white" stroke-opacity="0.5" stroke-width="2.05614" stroke-miterlimit="10"/>
<path d="M71.3291 105.864C71.3291 122.424 84.748 135.846 101.305 135.846C117.862 135.846 131.281 122.424 131.281 105.864C131.281 89.3044 117.862 75.8832 101.305 75.8832V18.4824" stroke="white" stroke-opacity="0.5" stroke-width="2.05614" stroke-miterlimit="10"/>
<path d="M189.43 17.835H-31.1351L-63.005 49.7283H-178.779" stroke="white" stroke-opacity="0.5" stroke-width="2.05614" stroke-miterlimit="10"/>
<path d="M32.3887 301.5V342.647" stroke="white" stroke-opacity="0.5" stroke-width="2.05614" stroke-miterlimit="10"/>
<path d="M9.94824 301.5V342.647" stroke="white" stroke-opacity="0.5" stroke-width="2.05614" stroke-miterlimit="10"/>
<path d="M32.3887 210.528V251.676" stroke="white" stroke-opacity="0.5" stroke-width="2.05614" stroke-miterlimit="10"/>
<path d="M9.94824 210.528V251.676" stroke="white" stroke-opacity="0.5" stroke-width="2.05614" stroke-miterlimit="10"/>
<path d="M169.932 399.85H62.5986V420.865H169.932V399.85Z" stroke="white" stroke-opacity="0.5" stroke-width="2.05614" stroke-miterlimit="10"/>
<path d="M196.373 420.65H62.5986V441.666H196.373V420.65Z" stroke="white" stroke-opacity="0.5" stroke-width="2.05614" stroke-miterlimit="10"/>
<path d="M143.852 378.6H62.5986V399.615H143.852V378.6Z" stroke="white" stroke-opacity="0.5" stroke-width="2.05614" stroke-miterlimit="10"/>
<path d="M116.256 357.585H62.5986V378.601H116.256V357.585Z" stroke="white" stroke-opacity="0.5" stroke-width="2.05614" stroke-miterlimit="10"/>
<path d="M-6.0652 484.364L-21.1255 469.319L-35.4822 454.942L-48.7568 441.665L-35.4822 428.388L-21.1255 414.011L-6.0652 398.966L36.6264 441.665L-6.0652 484.364Z" stroke="white" stroke-opacity="0.5" stroke-width="2.05614" stroke-miterlimit="10"/>
<path d="M332.979 90.4773C332.979 70.2553 316.674 53.8215 296.474 53.6592H296.167V53.8396C296.167 66.7377 289.53 78.0843 279.502 84.6686C279.249 84.8309 278.997 84.9933 278.744 85.1376" stroke="white" stroke-opacity="0.5" stroke-width="2.05614" stroke-miterlimit="10"/>
<path d="M296.474 53.6593H296.15C296.15 34.195 281.053 18.2483 261.917 16.9315C261.971 16.9315 262.043 16.9134 262.097 16.9134C262.422 16.8954 262.729 16.8593 263.053 16.8232H332.98C332.98 37.0632 316.675 53.4789 296.474 53.6593Z" stroke="white" stroke-opacity="0.5" stroke-width="2.05614" stroke-miterlimit="10"/>
<path d="M359.32 79.7061C373.702 65.3209 373.702 41.9977 359.32 27.6124C344.937 13.2272 321.618 13.2272 307.235 27.6125C292.852 41.9977 292.852 65.3207 307.235 79.7059C321.618 94.0912 344.937 94.0913 359.32 79.7061Z" stroke="white" stroke-opacity="0.5" stroke-width="2.05614" stroke-miterlimit="10"/>
<path d="M406.62 90.4773C406.62 70.2553 390.316 53.8215 370.115 53.6592H369.809V53.8396C369.809 66.7377 363.171 78.0843 353.143 84.6686C352.891 84.8309 352.638 84.9933 352.386 85.1376" stroke="white" stroke-opacity="0.5" stroke-width="2.05614" stroke-miterlimit="10"/>
<path d="M406.639 16.8232C406.639 37.0632 390.334 53.4789 370.134 53.6593H369.809C369.809 34.195 354.713 18.2483 335.576 16.9315C335.63 16.9315 335.702 16.9134 335.756 16.9134C336.081 16.8954 336.388 16.8593 336.712 16.8232H406.639Z" stroke="white" stroke-opacity="0.5" stroke-width="2.05614" stroke-miterlimit="10"/>
<path d="M222.832 53.6593H222.526C222.526 34.195 207.411 18.2483 188.293 16.9315C188.672 16.9134 189.05 16.8774 189.429 16.8232H259.337C259.337 37.0813 243.015 53.4969 222.832 53.6593Z" stroke="white" stroke-opacity="0.5" stroke-width="2.05614" stroke-miterlimit="10"/>
<path d="M285.664 79.7147C300.047 65.3295 300.047 42.0063 285.664 27.621C271.282 13.2358 247.962 13.2359 233.58 27.6211C219.197 42.0064 219.197 65.3295 233.58 79.7147C247.962 94.1 271.282 94.1 285.664 79.7147Z" stroke="white" stroke-opacity="0.5" stroke-width="2.05614" stroke-miterlimit="10"/>
<path d="M188.293 90.586C207.411 89.2511 222.508 73.3045 222.508 53.8582V53.6777C242.852 53.6777 259.337 70.1657 259.337 90.5139" stroke="white" stroke-opacity="0.5" stroke-width="2.05614" stroke-miterlimit="10"/>
<path d="M497.361 16.8232H343.188H336.118H335.468H190.638H188.293V16.8594V41.4107V65.962V90.4774H538.015" stroke="white" stroke-opacity="0.5" stroke-width="2.05614" stroke-miterlimit="10"/>
<path d="M71.0935 17.7617H49.7207V39.1381H71.0935V17.7617Z" stroke="white" stroke-opacity="0.5" stroke-width="2.05614" stroke-miterlimit="10"/>
<path d="M71.0935 55.7881H49.7207V77.1645H71.0935V55.7881Z" stroke="white" stroke-opacity="0.5" stroke-width="2.05614" stroke-miterlimit="10"/>
<path d="M37.4021 17.7617H16.0293V39.1381H37.4021V17.7617Z" stroke="white" stroke-opacity="0.5" stroke-width="2.05614" stroke-miterlimit="10"/>
<path d="M37.4021 55.7881H16.0293V77.1645H37.4021V55.7881Z" stroke="white" stroke-opacity="0.5" stroke-width="2.05614" stroke-miterlimit="10"/>
<path d="M3.71171 17.7617H-17.6611V39.1381H3.71171V17.7617Z" stroke="white" stroke-opacity="0.5" stroke-width="2.05614" stroke-miterlimit="10"/>
<path d="M3.71171 55.7881H-17.6611V77.1645H3.71171V55.7881Z" stroke="white" stroke-opacity="0.5" stroke-width="2.05614" stroke-miterlimit="10"/>
<path d="M362.251 559.587H309.513C289.295 559.587 272.918 575.985 272.918 596.189V645.886V705.217V757.964C272.918 778.186 298.656 794.566 318.874 794.566H368.564" stroke="white" stroke-opacity="0.5" stroke-width="2.05614" stroke-miterlimit="10"/>
<path d="M62.5986 441.665L278.744 657.847" stroke="white" stroke-opacity="0.5" stroke-width="2.05614" stroke-miterlimit="10"/>
<path d="M186.703 127.169H377.67" stroke="white" stroke-opacity="0.5" stroke-width="2.05614" stroke-miterlimit="10"/>
<path d="M146.216 442.062C165.19 442.062 180.557 457.432 180.557 476.409C180.557 495.386 165.19 510.756 146.216 510.756C127.242 510.756 111.875 495.368 111.875 476.409C111.875 457.45 127.26 442.062 146.216 442.062Z" stroke="white" stroke-opacity="0.5" stroke-width="2.05614" stroke-miterlimit="10"/>
<path d="M234.862 568.426L169.787 503.341" stroke="white" stroke-opacity="0.5" stroke-width="2.05614" stroke-miterlimit="10"/>
<path d="M176.64 493.744L234.861 551.993" stroke="white" stroke-opacity="0.5" stroke-width="2.05614" stroke-miterlimit="10"/>
<path d="M121.956 476.408C121.956 463.005 132.814 452.146 146.215 452.146" stroke="white" stroke-opacity="0.5" stroke-width="2.05614" stroke-miterlimit="10"/>
<path d="M259.338 257.34V389.116" stroke="white" stroke-opacity="0.5" stroke-width="2.05614" stroke-miterlimit="10"/>
<path d="M62.5986 357.584L143.401 276.768L157.253 262.914L258.742 364.439" stroke="white" stroke-opacity="0.5" stroke-width="2.05614" stroke-miterlimit="10"/>
<path d="M259.212 391.011H196.374V453.859H259.212V391.011Z" stroke="white" stroke-opacity="0.5" stroke-width="2.05614" stroke-miterlimit="10"/>
<path d="M297.464 492.824V428.695V127.169L368.112 197.829" stroke="white" stroke-opacity="0.5" stroke-width="2.05614" stroke-miterlimit="10"/>
<path d="M196.374 453.877L234.863 492.373L297.341 492.463L259.05 453.877" stroke="white" stroke-opacity="0.5" stroke-width="2.05614" stroke-miterlimit="10"/>
<path d="M234.863 492.373V613.957" stroke="white" stroke-opacity="0.5" stroke-width="2.05614" stroke-miterlimit="10"/>
<path d="M96.3779 228.081C117.39 207.065 151.442 207.065 172.455 228.081C193.467 249.097 193.467 283.155 172.455 304.171" stroke="white" stroke-opacity="0.5" stroke-width="2.05614" stroke-miterlimit="10"/>
<path d="M188.293 90.4785V262.915" stroke="white" stroke-opacity="0.5" stroke-width="2.05614" stroke-miterlimit="10"/>
<path d="M360.447 536.371H251.941V693.511" stroke="white" stroke-opacity="0.5" stroke-width="2.05614" stroke-miterlimit="10"/>
<path d="M297.464 370.067H352.384" stroke="white" stroke-opacity="0.5" stroke-width="2.05614" stroke-miterlimit="10"/>
<path d="M297.464 354.139H352.384" stroke="white" stroke-opacity="0.5" stroke-width="2.05614" stroke-miterlimit="10"/>
<path d="M297.464 338.21H352.384" stroke="white" stroke-opacity="0.5" stroke-width="2.05614" stroke-miterlimit="10"/>
<path d="M297.464 322.301H352.384" stroke="white" stroke-opacity="0.5" stroke-width="2.05614" stroke-miterlimit="10"/>
<path d="M297.464 306.371H352.384" stroke="white" stroke-opacity="0.5" stroke-width="2.05614" stroke-miterlimit="10"/>
<path d="M297.464 290.443H352.384" stroke="white" stroke-opacity="0.5" stroke-width="2.05614" stroke-miterlimit="10"/>
<path d="M-150.606 -113.167L-270.042 6.2891V-47.7564L-204.589 -113.221H-150.606H19.9077" stroke="white" stroke-opacity="0.5" stroke-width="2.05614" stroke-miterlimit="10"/>
<path d="M189.284 16.931C146.412 16.931 111.674 -17.8305 111.674 -60.6917C111.674 -103.571 146.412 -138.314 189.284 -138.314C232.138 -138.314 266.893 -103.553 266.893 -60.6917C266.893 -17.8305 232.138 16.931 189.284 16.931Z" stroke="white" stroke-opacity="0.5" stroke-width="2.05614" stroke-miterlimit="10"/>
<path d="M189.284 3.88936C153.627 3.88936 124.715 -25.0275 124.715 -60.691C124.715 -96.3545 153.627 -125.271 189.284 -125.271C224.942 -125.271 253.854 -96.3545 253.854 -60.691" stroke="white" stroke-opacity="0.5" stroke-width="2.05614" stroke-miterlimit="10"/>
<path d="M353.466 -469.911H-1259.47V632.249H353.466V-469.911Z" stroke="white" stroke-opacity="0.5" stroke-width="2.05614" stroke-miterlimit="10"/>
</g>
<defs>
<linearGradient id="paint0_linear_1209_4" x1="0" y1="345.5" x2="1920" y2="345.5" gradientUnits="userSpaceOnUse">
<stop stop-color="#0A52CB"/>
<stop offset="0.504748" stop-color="#4848A6"/>
<stop offset="1" stop-color="#7151AF"/>
</linearGradient>
<clipPath id="clip0_1209_4">
<rect width="1566" height="619" fill="white" transform="translate(353 4)"/>
</clipPath>
<clipPath id="clip1_1209_4">
<rect width="356" height="623" fill="white" transform="translate(-2)"/>
</clipPath>
</defs>
</svg>
