<svg width="212" height="212" viewBox="0 0 212 212" fill="none" xmlns="http://www.w3.org/2000/svg">
<g clip-path="url(#clip0_542_11623)">
<path d="M163.427 112.748V103.108H176.657L109.421 55.2287V52.5487H132.568V34.9258H103.159V38.0571V52.5487V55.2287L35.9219 103.108H49.1522V112.748H0.869141V177.305H49.1522H55.4148H78.4924H134.087H157.165H163.427H211.71V112.748H163.427ZM109.421 41.1884H126.306V46.2861H109.421V41.1884ZM49.1522 171.043H7.13178V119.011H49.1522V171.043ZM106.29 60.6871L157.067 96.8451H55.5124L106.29 60.6871ZM61.9558 171.043H55.4148V112.748V112.747H61.9558V171.043ZM78.4368 171.043H68.2184V112.747H78.4368V171.043ZM127.824 171.043H84.7551V153.21H127.824V171.043ZM84.6995 146.947V112.746H94.9178V146.947H84.6995ZM101.18 146.947V112.746H111.399V146.947H101.18ZM127.88 146.947H117.661V112.746H127.88V146.947ZM144.361 171.043H134.143V112.747H144.361V171.043ZM157.165 112.748V171.043H150.623V112.747H157.165V112.748ZM157.165 106.484H55.4148V103.108H157.165V106.484ZM205.448 171.043H163.427V119.011H205.448V171.043Z" fill="#003896"/>
<path d="M106.288 71.5654C100.669 71.5654 96.0977 76.1368 96.0977 81.7554C96.0977 87.374 100.669 91.9454 106.288 91.9454C111.907 91.9454 116.477 87.374 116.477 81.7554C116.477 76.1368 111.907 71.5654 106.288 71.5654ZM106.288 85.6827C104.122 85.6827 102.36 83.9206 102.36 81.7554C102.36 79.5897 104.122 77.8281 106.288 77.8281C108.453 77.8281 110.215 79.5902 110.215 81.7554C110.215 83.921 108.453 85.6827 106.288 85.6827Z" fill="#003896"/>
<path d="M174.79 124.465H168.527V133.223H174.79V124.465Z" fill="#003896"/>
<path d="M187.571 124.465H181.309V133.223H187.571V124.465Z" fill="#003896"/>
<path d="M200.352 124.465H194.089V133.223H200.352V124.465Z" fill="#003896"/>
<path d="M174.79 140.719H168.527V149.477H174.79V140.719Z" fill="#003896"/>
<path d="M187.571 140.719H181.309V149.477H187.571V140.719Z" fill="#003896"/>
<path d="M200.352 140.719H194.089V149.477H200.352V140.719Z" fill="#003896"/>
<path d="M174.79 156.973H168.527V165.731H174.79V156.973Z" fill="#003896"/>
<path d="M187.571 156.973H181.309V165.731H187.571V156.973Z" fill="#003896"/>
<path d="M200.352 156.973H194.089V165.731H200.352V156.973Z" fill="#003896"/>
<path d="M43.7734 124.466H37.5107V133.224H43.7734V124.466Z" fill="#003896"/>
<path d="M30.999 124.466H24.7363V133.224H30.999V124.466Z" fill="#003896"/>
<path d="M18.2177 124.465H11.9551V133.223H18.2177V124.465Z" fill="#003896"/>
<path d="M43.7734 140.719H37.5107V149.477H43.7734V140.719Z" fill="#003896"/>
<path d="M30.999 140.719H24.7363V149.477H30.999V140.719Z" fill="#003896"/>
<path d="M18.2177 140.719H11.9551V149.477H18.2177V140.719Z" fill="#003896"/>
<path d="M43.7734 156.973H37.5107V165.731H43.7734V156.973Z" fill="#003896"/>
<path d="M30.999 156.973H24.7363V165.731H30.999V156.973Z" fill="#003896"/>
<path d="M18.2177 156.973H11.9551V165.731H18.2177V156.973Z" fill="#003896"/>
</g>
<defs>
<clipPath id="clip0_542_11623">
<rect width="210.841" height="210.841" fill="white" transform="translate(0.869141 0.695312)"/>
</clipPath>
</defs>
</svg>
