<svg width="203" height="203" viewBox="0 0 203 203" fill="none" xmlns="http://www.w3.org/2000/svg">
<path d="M38.0625 196.656H126.875C128.557 196.653 130.169 195.985 131.36 194.798L182.11 144.048C182.868 143.243 183.399 142.251 183.648 141.174C183.719 140.913 183.772 140.647 183.806 140.378C183.879 140.11 183.933 139.838 183.969 139.562V25.375C183.963 20.3294 181.956 15.492 178.388 11.9242C174.821 8.35636 169.983 6.34946 164.938 6.34375H38.0625C33.0169 6.34946 28.1795 8.35636 24.6117 11.9242C21.0439 15.492 19.037 20.3294 19.0312 25.375V177.625C19.037 182.671 21.0439 187.508 24.6117 191.076C28.1795 194.644 33.0169 196.651 38.0625 196.656ZM133.219 174.999V152.25C133.219 150.568 133.887 148.954 135.077 147.764C136.266 146.575 137.88 145.906 139.562 145.906H162.311L133.219 174.999ZM31.7188 25.375C31.7188 23.6925 32.3871 22.079 33.5768 20.8893C34.7665 19.6996 36.38 19.0312 38.0625 19.0312H164.938C166.62 19.0312 168.234 19.6996 169.423 20.8893C170.613 22.079 171.281 23.6925 171.281 25.375V133.219H139.562C134.517 133.224 129.679 135.231 126.112 138.799C122.544 142.367 120.537 147.204 120.531 152.25V183.969H38.0625C36.38 183.969 34.7665 183.3 33.5768 182.111C32.3871 180.921 31.7188 179.307 31.7188 177.625V25.375Z" fill="#003896"/>
<path d="M76.125 95.1562H95.1562V114.188C95.1562 115.87 95.8246 117.484 97.0143 118.673C98.204 119.863 99.8175 120.531 101.5 120.531C103.182 120.531 104.796 119.863 105.986 118.673C107.175 117.484 107.844 115.87 107.844 114.188V95.1562H126.875C128.557 95.1562 130.171 94.4879 131.361 93.2982C132.55 92.1085 133.219 90.495 133.219 88.8125C133.219 87.13 132.55 85.5165 131.361 84.3268C130.171 83.1371 128.557 82.4688 126.875 82.4688H107.844V63.4375C107.844 61.755 107.175 60.1415 105.986 58.9518C104.796 57.7621 103.182 57.0938 101.5 57.0938C99.8175 57.0938 98.204 57.7621 97.0143 58.9518C95.8246 60.1415 95.1562 61.755 95.1562 63.4375V82.4688H76.125C74.4425 82.4688 72.829 83.1371 71.6393 84.3268C70.4496 85.5165 69.7812 87.13 69.7812 88.8125C69.7812 90.495 70.4496 92.1085 71.6393 93.2982C72.829 94.4879 74.4425 95.1562 76.125 95.1562Z" fill="#003896"/>
</svg>
