<svg width="169" height="168" viewBox="0 0 169 168" fill="none" xmlns="http://www.w3.org/2000/svg">
<g clip-path="url(#clip0_542_11580)">
<path d="M160.048 103.21H157.351V92.4196C157.351 86.4687 152.511 81.6293 146.56 81.6293H114.19V76.2342H108.794V81.6293H98.0042C92.0533 81.6293 87.2139 86.4687 87.2139 92.4196V103.21H84.5163C80.0545 103.21 76.4236 106.841 76.4236 111.303V162.556H6.28675V16.8876H31.5954L36.9905 27.6779H49.4479V33.073H11.6819V87.0244H65.6333V65.4115C70.1221 65.2362 73.726 61.5567 73.726 57.0247C73.726 54.775 72.852 52.6601 71.2605 51.0712L65.6333 45.4441V27.6779H78.0907L83.4859 16.8876H108.794V70.839H114.19V11.4924H86.1834L86.4667 10.9232C86.9549 9.94673 87.2139 8.85421 87.2139 7.76439C87.2139 3.8691 84.0443 0.702148 80.1517 0.702148H34.9296C31.037 0.702148 27.8673 3.8691 27.8673 7.76439C27.8673 8.85421 28.1263 9.94673 28.6118 10.9232L28.8978 11.4924H0.891602V167.952H76.4236H79.1212H168.141V111.303C168.141 106.841 164.51 103.21 160.048 103.21ZM60.2382 81.6293H17.077V38.4682H49.4479V45.4441L43.8181 51.0712C42.2292 52.6628 41.3552 54.775 41.3552 57.0247C41.3552 61.6673 45.1318 65.4439 49.7743 65.4439H60.2382V81.6293ZM67.4461 54.8856C68.018 55.4575 68.3309 56.2155 68.3309 57.0247C68.3309 58.6918 66.974 60.0487 65.3069 60.0487H49.7743C48.1072 60.0487 46.7503 58.6918 46.7503 57.0247C46.7503 56.2155 47.0659 55.4548 47.6351 54.8856L54.843 47.6777V27.6779H60.2382V47.6777L67.4461 54.8856ZM34.9296 6.09729H80.1517C81.0715 6.09729 81.8188 6.84452 81.8188 7.76439C81.8188 8.02066 81.7594 8.27963 81.6434 8.50892L74.7565 22.2827H40.3247L33.4378 8.51162C33.3218 8.27963 33.2625 8.02066 33.2625 7.76439C33.2625 6.84452 34.0097 6.09729 34.9296 6.09729ZM92.609 92.4196C92.609 89.4442 95.0288 87.0244 98.0042 87.0244H146.56C149.536 87.0244 151.956 89.4442 151.956 92.4196V103.21H146.56V92.4196H98.0042V103.21H92.609V92.4196ZM141.165 97.8147V103.21H103.399V97.8147H141.165ZM162.746 162.556H81.8188V138.278H95.3066V143.673H111.492V138.278H133.073V143.673H149.258V138.278H162.746V162.556ZM100.702 138.278V132.883H106.097V138.278H100.702ZM138.468 138.278V132.883H143.863V138.278H138.468ZM162.746 132.883H149.258V127.488H133.073V132.883H111.492V127.488H95.3066V132.883H81.8188V111.303C81.8188 109.816 83.0273 108.605 84.5163 108.605H160.048C161.537 108.605 162.746 109.816 162.746 111.303V132.883Z" fill="#003896"/>
<path d="M103.402 33.0732H79.124V38.4684H103.402V33.0732Z" fill="#003896"/>
<path d="M103.402 43.8633H79.124V49.2584H103.402V43.8633Z" fill="#003896"/>
<path d="M103.402 54.6533H79.124V60.0485H103.402V54.6533Z" fill="#003896"/>
<path d="M103.402 65.4434H79.124V70.8385H103.402V65.4434Z" fill="#003896"/>
<path d="M65.6331 95.1172H11.6816V100.512H65.6331V95.1172Z" fill="#003896"/>
<path d="M65.6331 105.907H11.6816V111.302H65.6331V105.907Z" fill="#003896"/>
<path d="M65.6326 116.697H41.3545V122.092H65.6326V116.697Z" fill="#003896"/>
<path d="M35.9598 116.697H11.6816V122.092H35.9598V116.697Z" fill="#003896"/>
<path d="M65.6326 138.278H41.3545V143.673H65.6326V138.278Z" fill="#003896"/>
<path d="M35.9598 138.278H11.6816V143.673H35.9598V138.278Z" fill="#003896"/>
<path d="M65.6331 127.488H11.6816V132.883H65.6331V127.488Z" fill="#003896"/>
<path d="M65.6331 149.068H11.6816V154.464H65.6331V149.068Z" fill="#003896"/>
</g>
<defs>
<clipPath id="clip0_542_11580">
<rect width="167.249" height="167.249" fill="white" transform="translate(0.891602 0.702148)"/>
</clipPath>
</defs>
</svg>
