<svg width="151" height="54" viewBox="0 0 151 54" fill="none" xmlns="http://www.w3.org/2000/svg">
<path d="M71.5015 12.501V15.0766H63.1362V12.501H71.5015ZM64.1158 5.97385V22H60.8137V5.97385H64.1158ZM73.857 5.97385V22H70.5659V5.97385H73.857ZM87.4836 19.4244V22H78.9532V19.4244H87.4836ZM80.0319 5.97385V22H76.7298V5.97385H80.0319ZM86.3719 12.501V15.0106H78.9532V12.501H86.3719ZM87.4726 5.97385V8.56049H78.9532V5.97385H87.4726ZM89.4098 5.97385H95.3866C96.6121 5.97385 97.6651 6.1573 98.5456 6.5242C99.4335 6.8911 100.116 7.43411 100.593 8.15323C101.07 8.87235 101.308 9.75658 101.308 10.8059C101.308 11.6645 101.162 12.4019 100.868 13.0183C100.582 13.6274 100.175 14.1374 99.6463 14.5483C99.1253 14.9519 98.5126 15.2747 97.8082 15.5169L96.7625 16.0672H91.5672L91.5452 13.4916H95.4086C95.9883 13.4916 96.469 13.3889 96.8505 13.1834C97.2321 12.978 97.5183 12.6918 97.7091 12.3249C97.9072 11.958 98.0063 11.5324 98.0063 11.0481C98.0063 10.5344 97.9109 10.0905 97.7201 9.71622C97.5293 9.34198 97.2395 9.0558 96.8505 8.85767C96.4616 8.65955 95.9737 8.56049 95.3866 8.56049H92.7119V22H89.4098V5.97385ZM98.3695 22L94.7152 14.8565L98.2044 14.8345L101.903 21.8459V22H98.3695ZM115.441 19.4244V22H104.082V19.4244H115.441ZM115.276 7.81201L105.546 22H103.224V20.1068L113.031 5.97385H115.276V7.81201ZM114.143 5.97385V8.56049H103.235V5.97385H114.143ZM128.297 19.4244V22H119.767V19.4244H128.297ZM120.846 5.97385V22H117.544V5.97385H120.846ZM127.186 12.501V15.0106H119.767V12.501H127.186ZM128.286 5.97385V8.56049H119.767V5.97385H128.286ZM143.267 5.97385V22H139.965L133.526 11.2572V22H130.224V5.97385H133.526L139.976 16.7277V5.97385H143.267ZM67.9793 31.9738V48H64.6882V31.9738H67.9793ZM72.9104 31.9738V34.5605H59.8341V31.9738H72.9104ZM83.6422 31.9738H86.9333V42.5626C86.9333 43.7953 86.6691 44.8337 86.1408 45.6775C85.6198 46.5214 84.897 47.1561 83.9724 47.5817C83.0551 48.0073 81.9985 48.2201 80.8024 48.2201C79.6063 48.2201 78.5423 48.0073 77.6104 47.5817C76.6858 47.1561 75.9593 46.5214 75.431 45.6775C74.91 44.8337 74.6495 43.7953 74.6495 42.5626V31.9738H77.9516V42.5626C77.9516 43.2817 78.0653 43.8687 78.2928 44.3237C78.5203 44.7786 78.8468 45.1125 79.2724 45.3253C79.7054 45.5381 80.2153 45.6445 80.8024 45.6445C81.4041 45.6445 81.9141 45.5381 82.3324 45.3253C82.758 45.1125 83.0808 44.7786 83.301 44.3237C83.5284 43.8687 83.6422 43.2817 83.6422 42.5626V31.9738ZM96.8175 31.9738V48H93.5264V31.9738H96.8175ZM101.749 31.9738V34.5605H88.6724V31.9738H101.749ZM116.487 39.6127V40.3722C116.487 41.5903 116.322 42.6836 115.992 43.6522C115.661 44.6209 115.195 45.4464 114.594 46.1288C113.992 46.8039 113.273 47.3212 112.436 47.6808C111.607 48.0404 110.686 48.2201 109.674 48.2201C108.668 48.2201 107.747 48.0404 106.911 47.6808C106.082 47.3212 105.363 46.8039 104.754 46.1288C104.144 45.4464 103.671 44.6209 103.334 43.6522C103.003 42.6836 102.838 41.5903 102.838 40.3722V39.6127C102.838 38.3872 103.003 37.2939 103.334 36.3326C103.664 35.364 104.13 34.5385 104.732 33.856C105.341 33.1736 106.06 32.6526 106.889 32.293C107.725 31.9335 108.646 31.7537 109.652 31.7537C110.664 31.7537 111.585 31.9335 112.414 32.293C113.251 32.6526 113.97 33.1736 114.572 33.856C115.181 34.5385 115.65 35.364 115.981 36.3326C116.318 37.2939 116.487 38.3872 116.487 39.6127ZM113.152 40.3722V39.5907C113.152 38.7395 113.075 37.991 112.921 37.3453C112.767 36.6995 112.539 36.1565 112.238 35.7162C111.937 35.2759 111.571 34.9457 111.138 34.7256C110.705 34.4981 110.209 34.3844 109.652 34.3844C109.094 34.3844 108.599 34.4981 108.166 34.7256C107.74 34.9457 107.377 35.2759 107.076 35.7162C106.783 36.1565 106.559 36.6995 106.405 37.3453C106.251 37.991 106.173 38.7395 106.173 39.5907V40.3722C106.173 41.216 106.251 41.9645 106.405 42.6176C106.559 43.2633 106.786 43.81 107.087 44.2576C107.388 44.6979 107.755 45.0318 108.188 45.2593C108.621 45.4867 109.116 45.6005 109.674 45.6005C110.231 45.6005 110.727 45.4867 111.16 45.2593C111.593 45.0318 111.956 44.6979 112.249 44.2576C112.543 43.81 112.767 43.2633 112.921 42.6176C113.075 41.9645 113.152 41.216 113.152 40.3722ZM118.864 31.9738H124.841C126.067 31.9738 127.12 32.1573 128 32.5242C128.888 32.8911 129.571 33.4341 130.048 34.1532C130.525 34.8724 130.763 35.7566 130.763 36.8059C130.763 37.6645 130.616 38.4019 130.323 39.0183C130.037 39.6274 129.629 40.1374 129.101 40.5483C128.58 40.9519 127.967 41.2747 127.263 41.5169L126.217 42.0672H121.022L121 39.4916H124.863C125.443 39.4916 125.924 39.3889 126.305 39.1834C126.687 38.978 126.973 38.6918 127.164 38.3249C127.362 37.958 127.461 37.5324 127.461 37.0481C127.461 36.5344 127.366 36.0905 127.175 35.7162C126.984 35.342 126.694 35.0558 126.305 34.8577C125.916 34.6595 125.428 34.5605 124.841 34.5605H122.167V48H118.864V31.9738ZM127.824 48L124.17 40.8565L127.659 40.8345L131.357 47.8459V48H127.824Z" fill="#8FB5E1"/>
<circle cx="27" cy="27" r="26.9836" fill="#8FB5E1" stroke="#8FB5E1" stroke-width="0.0328467"/>
<path d="M28.4303 10.579L25.0086 14.0364C24.796 14.2512 24.9585 14.6151 25.2603 14.6001L30.1735 14.3569C30.2604 14.3526 30.3422 14.3142 30.4011 14.2501L33.6548 10.7034C33.8571 10.4828 33.6862 10.1283 33.3876 10.1492L28.6425 10.4816C28.5623 10.4872 28.4869 10.5219 28.4303 10.579Z" fill="white" stroke="#8FB5E1" stroke-width="0.262774"/>
<path d="M28.1872 16.8399L27.6639 15.5898C27.5773 15.383 27.7169 15.1518 27.9402 15.1321L30.4787 14.9078C30.556 14.901 30.6284 14.8672 30.6834 14.8125L32.4688 13.0326C32.6278 12.874 32.8952 12.9164 32.9974 13.1164L33.6167 14.3281C33.6388 14.3713 33.6515 14.4189 33.6519 14.4674C33.6541 14.7282 33.6137 14.9026 33.4908 15.2039C33.3271 15.5574 33.1649 15.7365 32.7998 16.0356C32.2442 16.5295 31.8682 16.6974 31.187 16.9787C30.543 17.1833 30.1753 17.2863 29.4408 17.3327C29.1083 17.3546 28.9139 17.3413 28.5795 17.199C28.551 17.1869 28.5245 17.1703 28.5007 17.1505L28.2802 16.9661C28.2396 16.9321 28.2077 16.8888 28.1872 16.8399Z" fill="white" stroke="#8FB5E1" stroke-width="0.262774"/>
<path d="M26.8753 14.6945L26.8995 14.5864C26.9407 14.402 26.8019 14.2263 26.6129 14.2238C26.4649 14.2218 26.3379 14.3289 26.3148 14.4751L26.2732 14.739C26.2667 14.9758 26.2805 15.1156 26.3238 15.3726L26.5928 16.2373C26.603 16.2703 26.6081 16.3047 26.6077 16.3392L26.6035 16.7307C26.6028 16.7925 26.6194 16.8532 26.6514 16.906L26.7764 17.112C26.7984 17.1484 26.8273 17.1802 26.8614 17.2056L27.0449 17.3427C27.098 17.3823 27.1379 17.4369 27.1596 17.4995L27.8354 19.4473C27.8996 19.6325 28.1098 19.7216 28.2876 19.6391L28.6645 19.4642C28.8423 19.3817 28.9099 19.1636 28.81 18.995L27.7717 17.2431C27.7301 17.1729 27.7159 17.0897 27.7318 17.0097L27.7699 16.8177C27.7836 16.7489 27.7751 16.6775 27.7455 16.6138L27.6121 16.3263C27.5972 16.2941 27.4194 16.1702 27.2809 16.0779C27.2214 16.0384 27.1756 15.9814 27.1507 15.9145L26.9211 15.2962C26.8463 15.0799 26.8595 14.9459 26.8675 14.7547C26.8683 14.7345 26.8709 14.7143 26.8753 14.6945Z" fill="white" stroke="#8FB5E1" stroke-width="0.262774"/>
<path d="M27.676 16.4848C27.816 16.7865 27.693 17.1292 27.4184 17.2566C27.1438 17.384 26.8028 17.2567 26.6628 16.955C26.5228 16.6533 26.6458 16.3107 26.9204 16.1833C27.1949 16.0559 27.536 16.1831 27.676 16.4848Z" fill="white" stroke="#8FB5E1" stroke-width="0.262774"/>
<path d="M10.623 38.3733L10.4463 33.569L12.3424 35.0809L14.3343 31.2667L22.7633 30.3493L26.2057 22.1494L45.7237 17.6719L41.2673 29.7318L31.2132 25.8995L28.2935 27.5549L28.4344 29.7321L28.5646 31.7425L26.2819 35.7603L25.1069 37.8284L22.1333 38.9832L23.9798 40.8944L17.8227 41.4201L17.2421 40.8828L15.8403 39.5858L10.623 38.3733Z" fill="white"/>
<path d="M10.623 38.3733L10.4463 33.569L12.3424 35.0809M10.623 38.3733L12.3424 35.0809M10.623 38.3733L15.8403 39.5858M14.3343 31.2667L28.4378 29.7318M14.3343 31.2667L15.8403 39.5858M14.3343 31.2667L12.3424 35.0809M14.3343 31.2667L17.4987 35.1981L26.2819 35.7603M15.8403 39.5858L17.2421 40.8828M24.1157 40.8828L23.9798 40.8944M17.2421 40.8828L17.8227 41.4201L23.9798 40.8944M17.2421 40.8828L22.1333 38.9832M22.1333 38.9832L25.1069 37.8284L26.2819 35.7603M22.1333 38.9832L23.9798 40.8944M22.7633 30.3493L26.2057 22.1494M26.2057 22.1494L27.5691 27.9657M26.2057 22.1494L45.7237 17.6719M45.7237 17.6719L27.5691 27.9657M45.7237 17.6719L41.2673 29.7318L31.2132 25.8995M45.7237 17.6719L31.2132 25.8995M27.5691 27.9657L28.2935 27.5549L28.5646 31.7425L26.2819 35.7603M27.5691 27.9657L31.2132 25.8995" stroke="#8FB5E1" stroke-width="0.4"/>
</svg>
